<svg width="40" height="40" viewBox="0 0 40 40" fill="none" xmlns="http://www.w3.org/2000/svg">
<g id="Fsel-logo">
<path id="Vector" fill-rule="evenodd" clip-rule="evenodd" d="M28.2146 37.5851C25.6731 38.7878 22.8296 39.4614 19.8275 39.4614C12.4995 39.4614 6.11451 35.4511 2.76648 29.5166L4.17242 28.8787C4.94831 28.4924 5.64067 28.7825 6.23863 29.2988L10.3696 33.1523C9.94912 33.2556 9.52483 33.3749 9.09724 33.511C13.0031 33.1613 13.9862 33.1552 18.1125 32.8073C16.202 32.5027 13.8144 32.444 11.2291 32.9608C7.52612 30.8695 5.0276 26.9132 5.0276 22.3753C5.0276 17.4735 7.93813 13.2506 12.138 11.325L13.7394 17.7022L12.837 11.0302L12.8408 11.0288C12.8445 11.0279 12.8181 10.8791 12.7997 10.7331C12.753 10.3599 12.887 10.2561 13.274 10.2092L16.2643 9.91205C16.8127 9.882 16.976 9.90219 16.9019 10.4693L15.6682 19.9371C17.7873 20.2089 19.4613 21.896 19.7063 24.0159L29.4747 22.8832C29.2704 27.8385 26.0856 32.029 21.6559 33.7288C24.0973 34.5864 26.3192 35.9074 28.2146 37.5851ZM14.604 29.6692C16.0099 29.6692 17.27 29.05 18.1266 28.0713C17.3069 28.7801 16.2369 29.2092 15.067 29.2092C12.4868 29.2092 10.3951 27.1249 10.3951 24.5544C10.3951 23.3836 10.8293 22.3143 11.5448 21.496C10.5579 22.3495 9.93354 23.6089 9.93354 25.0139C9.93354 27.585 12.0243 29.6692 14.604 29.6692ZM8.93773 17.3614C8.32891 17.3614 7.83525 17.8528 7.83525 18.4584C7.83525 19.064 8.32891 19.555 8.93773 19.555C9.18739 19.555 9.41817 19.4724 9.60318 19.3334C11.3046 20.6262 12.6713 22.2964 13.4878 23.7268C13.3571 23.9737 13.2825 24.2553 13.2825 24.5544C13.2825 25.5345 14.0811 26.3293 15.067 26.3293C16.0519 26.3293 16.8509 25.5345 16.8509 24.5544C16.8509 23.6225 16.1289 22.8583 15.2109 22.7856C15.3987 23.0531 15.5663 23.3071 15.7574 23.6301C15.5177 23.3465 15.294 23.0376 15.0372 22.7799H15.0353C13.8555 21.2318 11.5925 19.6644 9.98168 18.8128C10.0199 18.7016 10.0407 18.5823 10.0407 18.4584C10.0407 17.8528 9.54654 17.3614 8.93773 17.3614ZM20.3203 2.85753L21.4765 3.2326L22.2944 2.3374L22.2926 3.54711L23.4012 4.04423L22.2439 4.41696L22.1113 5.61915L21.3977 4.63946L20.207 4.88544L20.9234 3.90763L20.3203 2.85753ZM25.516 3.96631L26.5411 4.61693L27.5576 3.95269L27.2528 5.12391L28.2019 5.88062L26.988 5.95432L26.5576 7.08564L26.1125 5.95996L24.8968 5.90222L25.836 5.1333L25.516 3.96631ZM35.435 16.0991L35.9197 17.2088L37.1354 17.2238L36.2246 18.0246L36.5861 19.1799L35.5379 18.5654L34.5454 19.2644L34.8097 18.0838L33.8341 17.3604L35.0447 17.2449L35.435 16.0991ZM33.5269 11.1523L34.1952 12.1634L35.3958 11.9719L34.6355 12.9159L35.1901 13.9928L34.0522 13.5651L33.1937 14.4223L33.2508 13.214L32.1667 12.6666L33.3395 12.3474L33.5269 11.1523ZM30.1307 7.09127L31.06 7.87145L32.1573 7.34898L31.6976 8.46903L32.5367 9.34451L31.3234 9.25579L30.7457 10.3204L30.4554 9.14641L29.259 8.92813L30.2921 8.29018L30.1307 7.09127ZM19.7903 11.6306C20.0366 11.6067 20.2858 11.594 20.5383 11.594C24.7132 11.594 28.0966 14.9602 28.0966 19.1114C28.0966 19.3625 28.0839 19.6118 28.0598 19.8568C26.8903 15.9071 23.7603 12.7938 19.7903 11.6306Z" fill="#EBEEFA"/>
<path id="Vector_2" fill-rule="evenodd" clip-rule="evenodd" d="M19.788 0.287354C30.7156 0.287354 39.5751 9.09893 39.5751 19.9685C39.5751 30.8385 30.7156 39.6501 19.788 39.6501C8.85948 39.6501 0 30.8385 0 19.9685C0 9.09893 8.85948 0.287354 19.788 0.287354ZM33.5213 6.3082C30.0067 2.81286 25.1508 0.650219 19.788 0.650219C14.4243 0.650219 9.56836 2.81286 6.05373 6.3082C2.53957 9.80448 0.365291 14.6344 0.365291 19.9685C0.365291 25.3035 2.53957 30.1334 6.05373 33.6292C9.56836 37.1245 14.4243 39.2872 19.788 39.2872C25.1508 39.2872 30.0067 37.1245 33.5213 33.6292C37.036 30.1334 39.2098 25.3035 39.2098 19.9685C39.2098 14.6344 37.036 9.80448 33.5213 6.3082Z" fill="#EBEEFA"/>
</g>
</svg>
