<svg width="163" height="60" viewBox="0 0 163 60" fill="none" xmlns="http://www.w3.org/2000/svg">
<path d="M2.59208 7.56951C2.82083 3.32467 6.32949 0 10.5805 0H146.303C150.179 0 153.497 2.77733 154.179 6.59195L162.046 50.592C162.923 55.4959 159.152 60 154.171 60H8.20934C3.62191 60 -0.0259257 56.1503 0.220932 51.5695L2.59208 7.56951Z" fill="#0452B8"/>
<g filter="url(#filter0_ii_2825_71606)">
<path d="M2.59436 7.57204C2.82181 3.32615 6.33092 0 10.5829 0H146.302C150.178 0 153.496 2.77825 154.177 6.59367L161.32 46.5937C162.196 51.4971 158.426 56 153.445 56H8.44005C3.85362 56 0.206148 52.1519 0.451498 47.572L2.59436 7.57204Z" fill="#0F77FF"/>
</g>
<path d="M3.09364 7.59879C3.30688 3.61826 6.59667 0.5 10.5829 0.5H146.302C149.936 0.5 153.046 3.10461 153.685 6.68157L160.828 46.6816C161.649 51.2786 158.115 55.5 153.445 55.5H8.44005C4.14027 55.5 0.720766 51.8924 0.950782 47.5988L3.09364 7.59879Z" stroke="url(#paint0_radial_2825_71606)"/>
<path d="M3.09364 7.59879C3.30688 3.61826 6.59667 0.5 10.5829 0.5H146.302C149.936 0.5 153.046 3.10461 153.685 6.68157L160.828 46.6816C161.649 51.2786 158.115 55.5 153.445 55.5H8.44005C4.14027 55.5 0.720766 51.8924 0.950782 47.5988L3.09364 7.59879Z" stroke="url(#paint1_radial_2825_71606)"/>
<path d="M3.09364 7.59879C3.30688 3.61826 6.59667 0.5 10.5829 0.5H146.302C149.936 0.5 153.046 3.10461 153.685 6.68157L160.828 46.6816C161.649 51.2786 158.115 55.5 153.445 55.5H8.44005C4.14027 55.5 0.720766 51.8924 0.950782 47.5988L3.09364 7.59879Z" stroke="url(#paint2_radial_2825_71606)"/>
<mask id="mask0_2825_71606" style="mask-type:alpha" maskUnits="userSpaceOnUse" x="0" y="0" width="162" height="56">
<path d="M3.09364 7.59879C3.30688 3.61826 6.59667 0.5 10.5829 0.5H146.302C149.936 0.5 153.046 3.10461 153.685 6.68157L160.828 46.6816C161.649 51.2786 158.115 55.5 153.445 55.5H8.44005C4.14027 55.5 0.720766 51.8924 0.950782 47.5988L3.09364 7.59879Z" fill="#0F77FF"/>
<path d="M3.09364 7.59879C3.30688 3.61826 6.59667 0.5 10.5829 0.5H146.302C149.936 0.5 153.046 3.10461 153.685 6.68157L160.828 46.6816C161.649 51.2786 158.115 55.5 153.445 55.5H8.44005C4.14027 55.5 0.720766 51.8924 0.950782 47.5988L3.09364 7.59879Z" stroke="url(#paint3_radial_2825_71606)"/>
<path d="M3.09364 7.59879C3.30688 3.61826 6.59667 0.5 10.5829 0.5H146.302C149.936 0.5 153.046 3.10461 153.685 6.68157L160.828 46.6816C161.649 51.2786 158.115 55.5 153.445 55.5H8.44005C4.14027 55.5 0.720766 51.8924 0.950782 47.5988L3.09364 7.59879Z" stroke="url(#paint4_radial_2825_71606)"/>
<path d="M3.09364 7.59879C3.30688 3.61826 6.59667 0.5 10.5829 0.5H146.302C149.936 0.5 153.046 3.10461 153.685 6.68157L160.828 46.6816C161.649 51.2786 158.115 55.5 153.445 55.5H8.44005C4.14027 55.5 0.720766 51.8924 0.950782 47.5988L3.09364 7.59879Z" stroke="url(#paint5_radial_2825_71606)"/>
</mask>
<g mask="url(#mask0_2825_71606)">
<g opacity="0.1">
<path d="M86.9952 51.5853C87.1201 51.454 87.3063 51.4007 87.4819 51.4458L91.1755 52.3952C91.3473 52.4394 91.4828 52.5712 91.5317 52.7417L92.6001 56.4676C92.6489 56.638 92.6039 56.8216 92.4816 56.9501L89.8523 59.7126C89.7274 59.8439 89.5412 59.8973 89.3657 59.8522L85.672 58.9027C85.5003 58.8586 85.3648 58.7267 85.3159 58.5563L84.2475 54.8304C84.1986 54.6599 84.2437 54.4763 84.3659 54.3478L86.9952 51.5853Z" fill="#E5F2FF"/>
<path d="M92.8033 44.631C92.9282 44.4997 93.1144 44.4463 93.29 44.4914L95.1599 44.9721C95.3317 45.0162 95.4672 45.1481 95.5161 45.3185L96.059 47.2118C96.1079 47.3822 96.0628 47.5658 95.9405 47.6943L94.6094 49.0929C94.4845 49.2241 94.2983 49.2775 94.1227 49.2324L92.2527 48.7517C92.081 48.7076 91.9455 48.5758 91.8966 48.4053L91.3537 46.5121C91.3048 46.3416 91.3499 46.158 91.4722 46.0295L92.8033 44.631Z" fill="#E5F2FF"/>
<path d="M98.8449 38.4909C98.9699 38.3596 99.1561 38.3062 99.3316 38.3513L99.9858 38.5195C100.158 38.5636 100.293 38.6955 100.342 38.8659L100.535 39.5374C100.583 39.7079 100.538 39.8915 100.416 40.0199L99.9504 40.5092C99.8254 40.6405 99.6392 40.6939 99.4637 40.6488L98.8095 40.4806C98.6377 40.4364 98.5022 40.3046 98.4533 40.1342L98.2608 39.4627C98.2119 39.2922 98.257 39.1086 98.3792 38.9802L98.8449 38.4909Z" fill="#E5F2FF"/>
<path d="M113.264 34.3564C113.389 34.2251 113.575 34.1717 113.751 34.2168L114.405 34.385C114.577 34.4291 114.712 34.5609 114.761 34.7314L114.953 35.4029C115.002 35.5733 114.957 35.7569 114.835 35.8854L114.369 36.3747C114.244 36.506 114.058 36.5594 113.883 36.5142L113.228 36.3461C113.057 36.3019 112.921 36.1701 112.872 35.9996L112.68 35.3282C112.631 35.1577 112.676 34.9741 112.798 34.8457L113.264 34.3564Z" fill="#E5F2FF"/>
<path d="M127.683 30.2218C127.808 30.0906 127.994 30.0372 128.169 30.0823L128.824 30.2505C128.995 30.2946 129.131 30.4264 129.18 30.5969L129.372 31.2683C129.421 31.4388 129.376 31.6224 129.254 31.7509L128.788 32.2402C128.663 32.3714 128.477 32.4248 128.302 32.3797L127.647 32.2116C127.476 32.1674 127.34 32.0356 127.291 31.8651L127.099 31.1937C127.05 31.0232 127.095 30.8396 127.217 30.7111L127.683 30.2218Z" fill="#E5F2FF"/>
<path d="M142.102 26.0873C142.227 25.956 142.413 25.9027 142.588 25.9478L143.243 26.1159C143.414 26.1601 143.55 26.2919 143.599 26.4624L143.791 27.1338C143.84 27.3043 143.795 27.4879 143.673 27.6163L143.207 28.1057C143.082 28.2369 142.896 28.2903 142.72 28.2452L142.066 28.077C141.894 28.0329 141.759 27.9011 141.71 27.7306L141.518 27.0591C141.469 26.8887 141.514 26.7051 141.636 26.5766L142.102 26.0873Z" fill="#E5F2FF"/>
<path d="M156.521 21.9528C156.646 21.8215 156.832 21.7681 157.007 21.8132L157.662 21.9814C157.833 22.0256 157.969 22.1574 158.018 22.3279L158.21 22.9993C158.259 23.1698 158.214 23.3534 158.092 23.4818L157.626 23.9711C157.501 24.1024 157.315 24.1558 157.139 24.1107L156.485 23.9425C156.313 23.8984 156.178 23.7665 156.129 23.5961L155.936 22.9246C155.888 22.7542 155.933 22.5706 156.055 22.4421L156.521 21.9528Z" fill="#E5F2FF"/>
<path d="M107.222 40.4964C107.347 40.3652 107.533 40.3118 107.709 40.3569L109.579 40.8376C109.751 40.8817 109.886 41.0135 109.935 41.184L110.478 43.0772C110.527 43.2477 110.482 43.4313 110.359 43.5598L109.028 44.9583C108.903 45.0896 108.717 45.143 108.542 45.0979L106.672 44.6172C106.5 44.5731 106.364 44.4412 106.316 44.2708L105.773 42.3775C105.724 42.2071 105.769 42.0235 105.891 41.895L107.222 40.4964Z" fill="#E5F2FF"/>
<path d="M121.641 36.3617C121.766 36.2304 121.952 36.177 122.128 36.2221L123.998 36.7028C124.17 36.7469 124.305 36.8788 124.354 37.0492L124.897 38.9425C124.946 39.1129 124.901 39.2965 124.778 39.425L123.447 40.8236C123.322 40.9549 123.136 41.0082 122.961 40.9631L121.091 40.4825C120.919 40.4383 120.783 40.3065 120.734 40.136L120.192 38.2428C120.143 38.0723 120.188 37.8887 120.31 37.7602L121.641 36.3617Z" fill="#E5F2FF"/>
<path d="M136.06 32.2271C136.185 32.0959 136.371 32.0425 136.547 32.0876L138.417 32.5683C138.588 32.6124 138.724 32.7442 138.773 32.9147L139.316 34.8079C139.365 34.9784 139.32 35.162 139.197 35.2905L137.866 36.6891C137.741 36.8203 137.555 36.8737 137.38 36.8286L135.51 36.3479C135.338 36.3038 135.202 36.172 135.153 36.0015L134.61 34.1083C134.562 33.9378 134.607 33.7542 134.729 33.6257L136.06 32.2271Z" fill="#E5F2FF"/>
<path d="M150.479 28.0926C150.604 27.9613 150.79 27.908 150.966 27.9531L152.836 28.4338C153.007 28.4779 153.143 28.6097 153.192 28.7802L153.735 30.6734C153.784 30.8439 153.738 31.0275 153.616 31.156L152.285 32.5545C152.16 32.6858 151.974 32.7392 151.798 32.6941L149.928 32.2134C149.757 32.1693 149.621 32.0374 149.572 31.867L149.029 29.9737C148.981 29.8033 149.026 29.6197 149.148 29.4912L150.479 28.0926Z" fill="#E5F2FF"/>
<path d="M101.414 47.4508C101.539 47.3195 101.725 47.2661 101.901 47.3113L105.594 48.2607C105.766 48.3048 105.902 48.4367 105.951 48.6071L107.019 52.3331C107.068 52.5035 107.023 52.6871 106.901 52.8156L104.271 55.5781C104.146 55.7094 103.96 55.7628 103.785 55.7176L100.091 54.7682C99.9192 54.724 99.7837 54.5922 99.7348 54.4218L98.6664 50.6958C98.6175 50.5254 98.6626 50.3418 98.7849 50.2133L101.414 47.4508Z" fill="#E5F2FF"/>
<path d="M115.833 43.3163C115.958 43.185 116.144 43.1316 116.32 43.1767L120.013 44.1262C120.185 44.1703 120.321 44.3021 120.37 44.4726L121.438 48.1985C121.487 48.369 121.442 48.5526 121.319 48.6811L118.69 51.4436C118.565 51.5748 118.379 51.6282 118.204 51.5831L114.51 50.6337C114.338 50.5895 114.203 50.4577 114.154 50.2872L113.085 46.5613C113.036 46.3908 113.082 46.2072 113.204 46.0788L115.833 43.3163Z" fill="#E5F2FF"/>
<path d="M130.252 39.1818C130.377 39.0505 130.563 38.9971 130.739 39.0422L134.432 39.9917C134.604 40.0358 134.74 40.1676 134.788 40.3381L135.857 44.064C135.906 44.2345 135.861 44.4181 135.738 44.5465L133.109 47.309C132.984 47.4403 132.798 47.4937 132.622 47.4486L128.929 46.4992C128.757 46.455 128.622 46.3232 128.573 46.1527L127.504 42.4268C127.455 42.2563 127.5 42.0727 127.623 41.9443L130.252 39.1818Z" fill="#E5F2FF"/>
<path d="M144.671 35.047C144.796 34.9157 144.982 34.8623 145.158 34.9074L148.851 35.8569C149.023 35.901 149.158 36.0329 149.207 36.2033L150.276 39.9292C150.325 40.0997 150.28 40.2833 150.157 40.4118L147.528 43.1743C147.403 43.3056 147.217 43.3589 147.041 43.3138L143.348 42.3644C143.176 42.3202 143.04 42.1884 142.992 42.0179L141.923 38.292C141.874 38.1216 141.919 37.938 142.042 37.8095L144.671 35.047Z" fill="#E5F2FF"/>
<path d="M159.09 30.9125C159.215 30.7812 159.401 30.7278 159.576 30.7729L163.27 31.7224C163.442 31.7665 163.577 31.8983 163.626 32.0688L164.695 35.7947C164.744 35.9652 164.698 36.1488 164.576 36.2773L161.947 39.0398C161.822 39.171 161.636 39.2244 161.46 39.1793L157.767 38.2299C157.595 38.1857 157.459 38.0539 157.41 37.8834L156.342 34.1575C156.293 33.987 156.338 33.8034 156.461 33.675L159.09 30.9125Z" fill="#E5F2FF"/>
<path d="M96.3067 56.8489C96.4317 56.7176 96.6179 56.6642 96.7934 56.7093L101.905 58.0234C102.077 58.0675 102.213 58.1993 102.262 58.3698L103.739 63.5211C103.788 63.6916 103.743 63.8752 103.62 64.0037L99.9813 67.827C99.8564 67.9583 99.6702 68.0117 99.4947 67.9666L94.3826 66.6525C94.2109 66.6084 94.0753 66.4766 94.0265 66.3061L92.5493 61.1547C92.5005 60.9843 92.5455 60.8007 92.6678 60.6722L96.3067 56.8489Z" fill="#E5F2FF"/>
<path d="M110.726 52.7141C110.851 52.5828 111.037 52.5294 111.212 52.5746L116.324 53.8886C116.496 53.9327 116.632 54.0646 116.68 54.235L118.158 59.3864C118.207 59.5568 118.161 59.7405 118.039 59.8689L114.4 63.6922C114.275 63.8235 114.089 63.8769 113.914 63.8318L108.802 62.5178C108.63 62.4736 108.494 62.3418 108.445 62.1713L106.968 57.02C106.919 56.8495 106.964 56.6659 107.087 56.5374L110.726 52.7141Z" fill="#E5F2FF"/>
<path d="M125.145 48.5796C125.27 48.4483 125.456 48.3949 125.631 48.44L130.743 49.7541C130.915 49.7982 131.051 49.93 131.099 50.1005L132.577 55.2519C132.625 55.4223 132.58 55.6059 132.458 55.7344L128.819 59.5577C128.694 59.689 128.508 59.7424 128.333 59.6973L123.22 58.3832C123.049 58.3391 122.913 58.2073 122.864 58.0368L121.387 52.8855C121.338 52.715 121.383 52.5314 121.506 52.4029L125.145 48.5796Z" fill="#E5F2FF"/>
<path d="M139.564 44.4451C139.688 44.3138 139.875 44.2604 140.05 44.3055L145.162 45.6196C145.334 45.6637 145.469 45.7955 145.518 45.966L146.995 51.1173C147.044 51.2878 146.999 51.4714 146.877 51.5999L143.238 55.4232C143.113 55.5545 142.927 55.6079 142.751 55.5627L137.639 54.2487C137.468 54.2046 137.332 54.0727 137.283 53.9023L135.806 48.7509C135.757 48.5805 135.802 48.3969 135.925 48.2684L139.564 44.4451Z" fill="#E5F2FF"/>
<path d="M153.982 40.3105C154.107 40.1793 154.294 40.1259 154.469 40.171L159.581 41.485C159.753 41.5292 159.888 41.661 159.937 41.8315L161.414 46.9828C161.463 47.1533 161.418 47.3369 161.296 47.4653L157.657 51.2887C157.532 51.42 157.346 51.4733 157.17 51.4282L152.058 50.1142C151.887 50.07 151.751 49.9382 151.702 49.7678L150.225 44.6164C150.176 44.4459 150.221 44.2623 150.343 44.1339L153.982 40.3105Z" fill="#E5F2FF"/>
<path d="M134.923 55.4722C135.048 55.341 135.234 55.2876 135.41 55.3327L142.143 57.0634C142.315 57.1076 142.45 57.2394 142.499 57.4099L144.443 64.1902C144.492 64.3607 144.447 64.5443 144.325 64.6728L139.532 69.7085C139.407 69.8398 139.221 69.8931 139.045 69.848L132.312 68.1173C132.141 68.0732 132.005 67.9413 131.956 67.7709L130.012 60.9905C129.963 60.82 130.008 60.6364 130.13 60.508L134.923 55.4722Z" fill="#E5F2FF"/>
<path d="M149.342 51.3377C149.467 51.2065 149.653 51.1531 149.829 51.1982L156.562 52.9289C156.734 52.973 156.869 53.1049 156.918 53.2753L158.862 60.0557C158.911 60.2262 158.866 60.4098 158.744 60.5383L153.951 65.574C153.826 65.7052 153.64 65.7586 153.464 65.7135L146.731 63.9828C146.56 63.9386 146.424 63.8068 146.375 63.6364L144.431 56.856C144.382 56.6855 144.427 56.5019 144.549 56.3734L149.342 51.3377Z" fill="#E5F2FF"/>
<path d="M163.761 47.203C163.886 47.0717 164.072 47.0183 164.248 47.0634L170.981 48.7941C171.153 48.8383 171.288 48.9701 171.337 49.1406L173.281 55.921C173.33 56.0914 173.285 56.275 173.163 56.4035L168.37 61.4392C168.245 61.5705 168.059 61.6239 167.883 61.5787L161.15 59.848C160.978 59.8039 160.843 59.6721 160.794 59.5016L158.85 52.7212C158.801 52.5507 158.846 52.3671 158.968 52.2387L163.761 47.203Z" fill="#E5F2FF"/>
</g>
<g opacity="0.1">
<path d="M6.76309 21.8646C6.93861 21.8195 7.1248 21.8729 7.24974 22.0042L7.71545 22.4935C7.83771 22.6219 7.88278 22.8056 7.8339 22.976L7.64136 23.6475C7.59248 23.8179 7.45696 23.9498 7.28521 23.9939L6.63098 24.1621C6.45546 24.2072 6.26926 24.1538 6.14432 24.0225L5.67862 23.5332C5.55636 23.4048 5.51129 23.2212 5.56017 23.0507L5.7527 22.3793C5.80158 22.2088 5.9371 22.077 6.10886 22.0328L6.76309 21.8646Z" fill="#E5F2FF"/>
<path d="M21.182 25.9992C21.3575 25.954 21.5437 26.0074 21.6687 26.1387L22.1344 26.628C22.2566 26.7565 22.3017 26.9401 22.2528 27.1105L22.0603 27.782C22.0114 27.9525 21.8759 28.0843 21.7041 28.1284L21.0499 28.2966C20.8744 28.3417 20.6882 28.2883 20.5632 28.157L20.0975 27.6677C19.9753 27.5393 19.9302 27.3557 19.9791 27.1852L20.1716 26.5138C20.2205 26.3433 20.356 26.2115 20.5278 26.1673L21.182 25.9992Z" fill="#E5F2FF"/>
<path d="M35.6009 30.1337C35.7765 30.0886 35.9627 30.142 36.0876 30.2732L36.5533 30.7625C36.6756 30.891 36.7206 31.0746 36.6717 31.2451L36.4792 31.9165C36.4303 32.087 36.2948 32.2188 36.1231 32.2629L35.4688 32.4311C35.2933 32.4762 35.1071 32.4228 34.9822 32.2916L34.5165 31.8023C34.3942 31.6738 34.3491 31.4902 34.398 31.3197L34.5906 30.6483C34.6394 30.4778 34.775 30.346 34.9467 30.3019L35.6009 30.1337Z" fill="#E5F2FF"/>
<path d="M50.0199 34.2685C50.1954 34.2233 50.3816 34.2767 50.5065 34.408L50.9722 34.8973C51.0945 35.0258 51.1396 35.2094 51.0907 35.3798L50.8981 36.0513C50.8493 36.2217 50.7137 36.3536 50.542 36.3977L49.8878 36.5659C49.7122 36.611 49.526 36.5576 49.4011 36.4263L48.9354 35.937C48.8131 35.8086 48.7681 35.625 48.8169 35.4545L49.0095 34.7831C49.0584 34.6126 49.1939 34.4808 49.3656 34.4366L50.0199 34.2685Z" fill="#E5F2FF"/>
<path d="M64.4388 38.403C64.6143 38.3579 64.8005 38.4112 64.9254 38.5425L65.3911 39.0318C65.5134 39.1603 65.5585 39.3439 65.5096 39.5144L65.3171 40.1858C65.2682 40.3563 65.1327 40.4881 64.9609 40.5322L64.3067 40.7004C64.1312 40.7455 63.945 40.6921 63.82 40.5609L63.3543 40.0716C63.2321 39.9431 63.187 39.7595 63.2359 39.589L63.4284 38.9176C63.4773 38.7471 63.6128 38.6153 63.7846 38.5711L64.4388 38.403Z" fill="#E5F2FF"/>
<path d="M-1.61419 23.8701C-1.43866 23.825 -1.25247 23.8784 -1.12753 24.0096L0.203599 25.4082C0.325859 25.5367 0.37093 25.7203 0.322049 25.8907L-0.220827 27.784C-0.269708 27.9544 -0.405227 28.0863 -0.576981 28.1304L-2.44698 28.6111C-2.6225 28.6562 -2.80869 28.6028 -2.93363 28.4715L-4.26476 27.073C-4.38702 26.9445 -4.43209 26.7609 -4.38321 26.5904L-3.84034 24.6972C-3.79146 24.5267 -3.65594 24.3949 -3.48418 24.3508L-1.61419 23.8701Z" fill="#E5F2FF"/>
<path d="M12.8047 28.0046C12.9803 27.9595 13.1665 28.0129 13.2914 28.1441L14.6225 29.5427C14.7448 29.6712 14.7899 29.8548 14.741 30.0253L14.1981 31.9185C14.1492 32.089 14.0137 32.2208 13.8419 32.2649L11.9719 32.7456C11.7964 32.7907 11.6102 32.7373 11.4853 32.6061L10.1542 31.2075C10.0319 31.079 9.98683 30.8954 10.0357 30.725L10.5786 28.8317C10.6275 28.6612 10.763 28.5294 10.9347 28.4853L12.8047 28.0046Z" fill="#E5F2FF"/>
<path d="M27.2237 32.1391C27.3992 32.094 27.5854 32.1474 27.7103 32.2787L29.0414 33.6773C29.1637 33.8057 29.2088 33.9893 29.1599 34.1598L28.617 36.053C28.5681 36.2235 28.4326 36.3553 28.2609 36.3995L26.3909 36.8801C26.2154 36.9252 26.0292 36.8719 25.9042 36.7406L24.5731 35.342C24.4508 35.2135 24.4058 35.0299 24.4546 34.8595L24.9975 32.9662C25.0464 32.7958 25.1819 32.6639 25.3537 32.6198L27.2237 32.1391Z" fill="#E5F2FF"/>
<path d="M4.19391 30.8244C4.36943 30.7793 4.55562 30.8327 4.68056 30.9639L7.30983 33.7265C7.43209 33.8549 7.47716 34.0385 7.42828 34.209L6.35989 37.9349C6.31101 38.1054 6.17549 38.2372 6.00373 38.2813L2.31009 39.2308C2.13456 39.2759 1.94837 39.2225 1.82343 39.0912L-0.805835 36.3287C-0.928096 36.2003 -0.973167 36.0167 -0.924286 35.8462L0.144104 32.1203C0.192985 31.9498 0.328504 31.818 0.500258 31.7738L4.19391 30.8244Z" fill="#E5F2FF"/>
<path d="M18.6128 34.9589C18.7884 34.9138 18.9745 34.9672 19.0995 35.0985L21.7288 37.861C21.851 37.9894 21.8961 38.173 21.8472 38.3435L20.7788 42.0694C20.7299 42.2399 20.5944 42.3717 20.4227 42.4159L16.729 43.3653C16.5535 43.4104 16.3673 43.357 16.2424 43.2258L13.6131 40.4633C13.4908 40.3348 13.4458 40.1512 13.4946 39.9807L14.563 36.2548C14.6119 36.0843 14.7474 35.9525 14.9192 35.9084L18.6128 34.9589Z" fill="#E5F2FF"/>
<path d="M9.30131 40.2225C9.47683 40.1773 9.66303 40.2307 9.78797 40.362L13.4269 44.1853C13.5492 44.3138 13.5942 44.4974 13.5453 44.6679L12.0682 49.8192C12.0193 49.9897 11.8838 50.1215 11.7121 50.1657L6.60003 51.4797C6.4245 51.5248 6.23831 51.4714 6.11337 51.3401L2.47444 47.5168C2.35218 47.3884 2.30711 47.2047 2.35599 47.0343L3.83311 41.8829C3.88199 41.7125 4.01751 41.5806 4.18927 41.5365L9.30131 40.2225Z" fill="#E5F2FF"/>
<path d="M-0.477331 47.115C-0.30181 47.0698 -0.115616 47.1232 0.00932569 47.2545L4.80215 52.2902C4.92441 52.4187 4.96948 52.6023 4.9206 52.7728L2.97636 59.5531C2.92748 59.7236 2.79196 59.8554 2.6202 59.8996L-4.11286 61.6303C-4.28839 61.6754 -4.47458 61.622 -4.59952 61.4908L-9.39235 56.455C-9.51461 56.3266 -9.55968 56.143 -9.5108 55.9725L-7.56655 49.1921C-7.51767 49.0216 -7.38215 48.8898 -7.2104 48.8457L-0.477331 47.115Z" fill="#E5F2FF"/>
<path d="M28.3605 55.384C28.536 55.3389 28.7222 55.3923 28.8472 55.5236L33.64 60.5593C33.7623 60.6877 33.8073 60.8713 33.7585 61.0418L31.8142 67.8222C31.7653 67.9927 31.6298 68.1245 31.4581 68.1686L24.725 69.8993C24.5495 69.9445 24.3633 69.8911 24.2383 69.7598L19.4455 64.7241C19.3232 64.5956 19.2782 64.412 19.3271 64.2416L21.2713 57.4612C21.3202 57.2907 21.4557 57.1589 21.6275 57.1147L28.3605 55.384Z" fill="#E5F2FF"/>
<path d="M13.9416 51.2495C14.1171 51.2044 14.3033 51.2578 14.4283 51.389L19.2211 56.4247C19.3433 56.5532 19.3884 56.7368 19.3395 56.9073L17.3953 63.6877C17.3464 63.8581 17.2109 63.99 17.0391 64.0341L10.3061 65.7648C10.1305 65.8099 9.94435 65.7565 9.8194 65.6253L5.02658 60.5896C4.90432 60.4611 4.85925 60.2775 4.90813 60.107L6.85237 53.3266C6.90125 53.1562 7.03677 53.0243 7.20853 52.9802L13.9416 51.2495Z" fill="#E5F2FF"/>
<path d="M23.7202 44.357C23.8958 44.3119 24.082 44.3653 24.2069 44.4965L27.8458 48.3199C27.9681 48.4483 28.0132 48.6319 27.9643 48.8024L26.4872 53.9537C26.4383 54.1242 26.3028 54.256 26.131 54.3002L21.019 55.6142C20.8434 55.6593 20.6572 55.6059 20.5323 55.4747L16.8934 51.6513C16.7711 51.5229 16.726 51.3393 16.7749 51.1688L18.252 46.0175C18.3009 45.847 18.4364 45.7152 18.6082 45.671L23.7202 44.357Z" fill="#E5F2FF"/>
<path d="M33.0318 39.0937C33.2073 39.0486 33.3935 39.102 33.5184 39.2332L36.1477 41.9957C36.2699 42.1242 36.315 42.3078 36.2661 42.4783L35.1977 46.2042C35.1489 46.3747 35.0133 46.5065 34.8416 46.5506L31.1479 47.5001C30.9724 47.5452 30.7862 47.4918 30.6613 47.3605L28.032 44.598C27.9098 44.4696 27.8647 44.286 27.9136 44.1155L28.982 40.3896C29.0308 40.2191 29.1664 40.0873 29.3381 40.0431L33.0318 39.0937Z" fill="#E5F2FF"/>
<path d="M41.6426 36.2736C41.8181 36.2285 42.0043 36.2819 42.1292 36.4132L43.4604 37.8118C43.5826 37.9402 43.6277 38.1238 43.5788 38.2943L43.036 40.1875C42.9871 40.358 42.8516 40.4898 42.6798 40.534L40.8098 41.0147C40.6343 41.0598 40.4481 41.0064 40.3231 40.8751L38.992 39.4765C38.8698 39.3481 38.8247 39.1645 38.8736 38.994L39.4164 37.1008C39.4653 36.9303 39.6008 36.7985 39.7726 36.7543L41.6426 36.2736Z" fill="#E5F2FF"/>
<path d="M56.0615 40.4082C56.237 40.363 56.4232 40.4164 56.5482 40.5477L57.8793 41.9463C58.0016 42.0748 58.0466 42.2584 57.9977 42.4288L57.4549 44.3221C57.406 44.4925 57.2705 44.6243 57.0987 44.6685L55.2287 45.1492C55.0532 45.1943 54.867 45.1409 54.7421 45.0096L53.4109 43.611C53.2887 43.4826 53.2436 43.299 53.2925 43.1285L53.8354 41.2353C53.8842 41.0648 54.0198 40.933 54.1915 40.8888L56.0615 40.4082Z" fill="#E5F2FF"/>
<path d="M70.4804 44.5429C70.656 44.4978 70.8422 44.5512 70.9671 44.6825L72.2982 46.0811C72.4205 46.2095 72.4656 46.3931 72.4167 46.5636L71.8738 48.4568C71.8249 48.6273 71.6894 48.7591 71.5176 48.8033L69.6476 49.2839C69.4721 49.3291 69.2859 49.2757 69.161 49.1444L67.8299 47.7458C67.7076 47.6174 67.6625 47.4337 67.7114 47.2633L68.2543 45.37C68.3032 45.1996 68.4387 45.0678 68.6104 45.0236L70.4804 44.5429Z" fill="#E5F2FF"/>
<path d="M47.4507 43.2282C47.6262 43.1831 47.8124 43.2365 47.9373 43.3678L50.5666 46.1303C50.6889 46.2587 50.7339 46.4423 50.6851 46.6128L49.6167 50.3387C49.5678 50.5092 49.4323 50.641 49.2605 50.6851L45.5669 51.6346C45.3913 51.6797 45.2051 51.6263 45.0802 51.495L42.4509 48.7325C42.3287 48.6041 42.2836 48.4205 42.3325 48.25L43.4009 44.5241C43.4498 44.3536 43.5853 44.2218 43.757 44.1776L47.4507 43.2282Z" fill="#E5F2FF"/>
<path d="M61.8696 47.3627C62.0451 47.3176 62.2313 47.371 62.3563 47.5023L64.9855 50.2648C65.1078 50.3932 65.1529 50.5768 65.104 50.7473L64.0356 54.4732C63.9867 54.6437 63.8512 54.7755 63.6794 54.8197L59.9858 55.7691C59.8103 55.8142 59.6241 55.7608 59.4991 55.6296L56.8699 52.8671C56.7476 52.7386 56.7025 52.555 56.7514 52.3845L57.8198 48.6586C57.8687 48.4881 58.0042 48.3563 58.176 48.3122L61.8696 47.3627Z" fill="#E5F2FF"/>
<path d="M76.2885 51.4973C76.4641 51.4521 76.6502 51.5055 76.7752 51.6368L79.4045 54.3993C79.5267 54.5278 79.5718 54.7114 79.5229 54.8818L78.4545 58.6078C78.4056 58.7782 78.2701 58.91 78.0984 58.9542L74.4047 59.9036C74.2292 59.9487 74.043 59.8954 73.9181 59.7641L71.2888 57.0016C71.1665 56.8731 71.1215 56.6895 71.1703 56.519L72.2387 52.7931C72.2876 52.6227 72.4231 52.4908 72.5949 52.4467L76.2885 51.4973Z" fill="#E5F2FF"/>
<path d="M38.1392 48.4915C38.3147 48.4464 38.5009 48.4998 38.6258 48.6311L42.2647 52.4544C42.387 52.5828 42.4321 52.7665 42.3832 52.9369L40.9061 58.0883C40.8572 58.2587 40.7217 58.3906 40.5499 58.4347L35.4379 59.7487C35.2624 59.7939 35.0762 59.7405 34.9512 59.6092L31.3123 55.7859C31.19 55.6574 31.145 55.4738 31.1938 55.3033L32.671 50.152C32.7198 49.9815 32.8554 49.8497 33.0271 49.8055L38.1392 48.4915Z" fill="#E5F2FF"/>
<path d="M52.5581 52.6263C52.7336 52.5812 52.9198 52.6345 53.0447 52.7658L56.6837 56.5892C56.8059 56.7176 56.851 56.9012 56.8021 57.0717L55.325 62.223C55.2761 62.3935 55.1406 62.5253 54.9688 62.5695L49.8568 63.8835C49.6813 63.9286 49.4951 63.8752 49.3701 63.7439L45.7312 59.9206C45.609 59.7922 45.5639 59.6086 45.6128 59.4381L47.0899 54.2867C47.1388 54.1163 47.2743 53.9845 47.446 53.9403L52.5581 52.6263Z" fill="#E5F2FF"/>
<path d="M66.977 56.7608C67.1525 56.7157 67.3387 56.7691 67.4637 56.9003L71.1026 60.7237C71.2249 60.8521 71.2699 61.0357 71.221 61.2062L69.7439 66.3575C69.695 66.528 69.5595 66.6598 69.3878 66.704L64.2757 68.018C64.1002 68.0631 63.914 68.0097 63.7891 67.8785L60.1501 64.0551C60.0279 63.9267 59.9828 63.7431 60.0317 63.5726L61.5088 58.4213C61.5577 58.2508 61.6932 58.119 61.865 58.0748L66.977 56.7608Z" fill="#E5F2FF"/>
</g>
</g>
<path d="M53.4395 26.418C53.4395 27.7812 52.9902 28.916 52.0918 29.8223C51.1895 30.7285 50.0586 31.1816 48.6992 31.1816C47.3867 31.1816 46.2734 30.7344 45.3594 29.8398C44.4414 28.9375 43.9824 27.832 43.9824 26.5234C43.9824 25.2109 44.4492 24.1152 45.3828 23.2363C46.2969 22.3809 47.4141 21.9531 48.7344 21.9531C49.7188 21.9531 50.6309 22.2402 51.4707 22.8145C52.3418 23.4082 52.9102 24.168 53.1758 25.0938H50.6328C50.2031 24.3281 49.5508 23.9453 48.6758 23.9453C47.9648 23.9453 47.3789 24.1992 46.918 24.707C46.4727 25.1992 46.25 25.8047 46.25 26.5234C46.25 27.2734 46.4668 27.8984 46.9004 28.3984C47.3574 28.9258 47.9531 29.1895 48.6875 29.1895C49.1992 29.1895 49.6406 29.0742 50.0117 28.8438C50.4102 28.5938 50.6758 28.2324 50.8086 27.7598H48.7344V26.5996C48.7344 26.4746 48.7539 26.3711 48.793 26.2891C48.832 26.2031 48.8848 26.1367 48.9512 26.0898C49.0215 26.0391 49.1016 26.0039 49.1914 25.9844C49.2852 25.9609 49.3848 25.9492 49.4902 25.9492H53.4277C53.4316 26.0195 53.4355 26.0977 53.4395 26.1836V26.418ZM56.9844 29.7168L57.4004 28.3633C57.4434 28.2148 57.5078 28.1035 57.5938 28.0293C57.6797 27.9551 57.7988 27.918 57.9512 27.918H59.0938C59.0039 27.6211 58.9219 27.3516 58.8477 27.1094C58.7773 26.8672 58.707 26.6309 58.6367 26.4004C58.5703 26.166 58.5 25.9277 58.4258 25.6855C58.3555 25.4434 58.2734 25.1758 58.1797 24.8828C58.1758 24.875 58.1699 24.8711 58.1621 24.8711C58.1543 24.8711 58.1484 24.875 58.1445 24.8828L56.1406 31H53.7031L57.1543 22.3867C57.1855 22.2969 57.2305 22.2305 57.2891 22.1875C57.3516 22.1406 57.4395 22.1172 57.5527 22.1172H58.7832C58.8848 22.1172 58.9648 22.1426 59.0234 22.1934C59.082 22.2402 59.1289 22.3047 59.1641 22.3867L62.5859 31H60.125L59.6914 29.7168H56.9844ZM70.7773 31L70.8477 24.3496V24.3145L68.5625 28.0352C68.5039 28.1133 68.4492 28.1719 68.3984 28.2109C68.3516 28.2461 68.2773 28.2637 68.1758 28.2637C68.0742 28.2637 68 28.2422 67.9531 28.1992C67.9102 28.1523 67.8652 28.0977 67.8184 28.0352L65.5098 24.3203V24.3496L65.5801 31H63.4941V22.6973C63.4941 22.5215 63.5527 22.3809 63.6699 22.2754C63.791 22.1699 63.9609 22.1172 64.1797 22.1172H66.0547C66.3164 22.1172 66.5 22.2246 66.6055 22.4395L68.1758 25C68.1797 25.0039 68.1836 25.0059 68.1875 25.0059C68.1914 25.0059 68.1953 25.0039 68.1992 25L69.7227 22.4805C69.7773 22.3789 69.8496 22.293 69.9395 22.2227C70.0332 22.1523 70.1543 22.1172 70.3027 22.1172H72.207C72.4062 22.1172 72.5645 22.1719 72.6816 22.2812C72.8027 22.3867 72.8633 22.5254 72.8633 22.6973V31H70.7773ZM74.4746 31V22.5977C74.4746 22.457 74.5254 22.3418 74.627 22.252C74.7285 22.1621 74.8535 22.1172 75.002 22.1172H79.9883V24.1094H76.6484V25.6738H79.3086V27.3086H76.6484V29.0078H79.9883V30.3906C79.9883 30.5938 79.9258 30.7461 79.8008 30.8477C79.6758 30.9492 79.5195 31 79.332 31H74.4746ZM90.875 28.4453C90.875 29.3359 90.5781 30.0215 89.9844 30.502C89.4375 30.9473 88.7031 31.1699 87.7812 31.1699C86.8398 31.1699 86.082 30.9355 85.5078 30.4668C84.8867 29.9668 84.5762 29.2598 84.5762 28.3457V28.0586H86.832C86.832 28.3867 86.9043 28.6621 87.0488 28.8848C87.2129 29.1426 87.4492 29.2715 87.7578 29.2715C88.332 29.2715 88.6191 28.9883 88.6191 28.4219C88.6191 28.1641 88.5195 27.9551 88.3203 27.7949C88.2422 27.7324 88.1406 27.6699 88.0156 27.6074L87.8457 27.5254L86.8789 27.1094C86.5586 26.9766 86.2832 26.8418 86.0527 26.7051C85.7793 26.5449 85.5488 26.3711 85.3613 26.1836C84.9277 25.7422 84.7109 25.2031 84.7109 24.5664C84.7109 23.7812 85.0391 23.1387 85.6953 22.6387C86.2969 22.1816 87.0039 21.9531 87.8164 21.9531C88.2734 21.9531 88.7109 22.0352 89.1289 22.1992C89.582 22.3789 89.9453 22.6328 90.2188 22.9609C90.5859 23.4141 90.7812 23.998 90.8047 24.7129H88.5605C88.4746 24.1348 88.2031 23.8457 87.7461 23.8457C87.2266 23.8457 86.9668 24.0781 86.9668 24.543C86.9668 24.707 86.9941 24.832 87.0488 24.918C87.1387 25.0703 87.4102 25.2578 87.8633 25.4805L88.8008 25.9023C89.1289 26.0508 89.4023 26.1934 89.6211 26.3301C89.8867 26.4941 90.1055 26.668 90.2773 26.8516C90.6758 27.2734 90.875 27.8047 90.875 28.4453ZM95.334 24.1094V30.4434C95.334 30.8145 95.1309 31 94.7246 31H93.0664V24.1094H91.3145V22.8789C91.3145 22.7539 91.3262 22.6484 91.3496 22.5625C91.373 22.4727 91.4219 22.3887 91.4961 22.3105C91.5742 22.2324 91.6602 22.1816 91.7539 22.1582C91.8477 22.1309 91.9551 22.1172 92.0762 22.1172H97.0742V23.4766C97.0742 23.5781 97.0566 23.668 97.0215 23.7461C96.9902 23.8242 96.9453 23.8906 96.8867 23.9453C96.8281 24 96.7617 24.041 96.6875 24.0684C96.6133 24.0957 96.5352 24.1094 96.4531 24.1094H95.334ZM99.5352 29.7168L99.9512 28.3633C99.9941 28.2148 100.059 28.1035 100.145 28.0293C100.23 27.9551 100.35 27.918 100.502 27.918H101.645C101.555 27.6211 101.473 27.3516 101.398 27.1094C101.328 26.8672 101.258 26.6309 101.188 26.4004C101.121 26.166 101.051 25.9277 100.977 25.6855C100.906 25.4434 100.824 25.1758 100.73 24.8828C100.727 24.875 100.721 24.8711 100.713 24.8711C100.705 24.8711 100.699 24.875 100.695 24.8828L98.6914 31H96.2539L99.7051 22.3867C99.7363 22.2969 99.7812 22.2305 99.8398 22.1875C99.9023 22.1406 99.9902 22.1172 100.104 22.1172H101.334C101.436 22.1172 101.516 22.1426 101.574 22.1934C101.633 22.2402 101.68 22.3047 101.715 22.3867L105.137 31H102.676L102.242 29.7168H99.5352ZM108.219 31H106.045V22.8086C106.045 22.5898 106.1 22.4199 106.209 22.2988C106.322 22.1777 106.506 22.1172 106.76 22.1172H108.998C109.295 22.1172 109.533 22.123 109.713 22.1348C109.979 22.1504 110.217 22.1758 110.428 22.2109C110.959 22.3047 111.395 22.4863 111.734 22.7559C112.469 23.3418 112.834 24.1504 112.83 25.1816C112.83 25.8887 112.637 26.4961 112.25 27.0039C111.844 27.543 111.301 27.8672 110.621 27.9766L113.029 31H110.439L108.857 28.1582C108.811 28.0645 108.771 27.9824 108.74 27.9121C108.709 27.8418 108.684 27.7734 108.664 27.707C108.645 27.6406 108.631 27.5703 108.623 27.4961C108.615 27.4219 108.613 27.334 108.617 27.2324C108.617 27.1543 108.629 27.0762 108.652 26.998C108.68 26.9199 108.717 26.8496 108.764 26.7871C108.814 26.7246 108.877 26.6758 108.951 26.6406C109.025 26.6016 109.109 26.582 109.203 26.582H109.227C110.219 26.582 110.695 26.1582 110.656 25.3105C110.637 24.9004 110.49 24.5918 110.217 24.3848C109.967 24.2012 109.625 24.1094 109.191 24.1094H108.219V31ZM117.518 24.1094V30.4434C117.518 30.8145 117.314 31 116.908 31H115.25V24.1094H113.498V22.8789C113.498 22.7539 113.51 22.6484 113.533 22.5625C113.557 22.4727 113.605 22.3887 113.68 22.3105C113.758 22.2324 113.844 22.1816 113.938 22.1582C114.031 22.1309 114.139 22.1172 114.26 22.1172H119.258V23.4766C119.258 23.5781 119.24 23.668 119.205 23.7461C119.174 23.8242 119.129 23.8906 119.07 23.9453C119.012 24 118.945 24.041 118.871 24.0684C118.797 24.0957 118.719 24.1094 118.637 24.1094H117.518Z" fill="#E5F2FF"/>
<defs>
<filter id="filter0_ii_2825_71606" x="0.439806" y="-6" width="161.007" height="62" filterUnits="userSpaceOnUse" color-interpolation-filters="sRGB">
<feFlood flood-opacity="0" result="BackgroundImageFix"/>
<feBlend mode="normal" in="SourceGraphic" in2="BackgroundImageFix" result="shape"/>
<feColorMatrix in="SourceAlpha" type="matrix" values="0 0 0 0 0 0 0 0 0 0 0 0 0 0 0 0 0 0 127 0" result="hardAlpha"/>
<feOffset dy="-6"/>
<feGaussianBlur stdDeviation="8"/>
<feComposite in2="hardAlpha" operator="arithmetic" k2="-1" k3="1"/>
<feColorMatrix type="matrix" values="0 0 0 0 0 0 0 0 0 0.82 0 0 0 0 1 0 0 0 0.8 0"/>
<feBlend mode="normal" in2="shape" result="effect1_innerShadow_2825_71606"/>
<feColorMatrix in="SourceAlpha" type="matrix" values="0 0 0 0 0 0 0 0 0 0 0 0 0 0 0 0 0 0 127 0" result="hardAlpha"/>
<feOffset dy="-3"/>
<feGaussianBlur stdDeviation="2"/>
<feComposite in2="hardAlpha" operator="arithmetic" k2="-1" k3="1"/>
<feColorMatrix type="matrix" values="0 0 0 0 0 0 0 0 0 0.82 0 0 0 0 1 0 0 0 1 0"/>
<feBlend mode="normal" in2="effect1_innerShadow_2825_71606" result="effect2_innerShadow_2825_71606"/>
</filter>
<radialGradient id="paint0_radial_2825_71606" cx="0" cy="0" r="1" gradientUnits="userSpaceOnUse" gradientTransform="translate(130.327 0.0902019) rotate(90) scale(16.625 37.7972)">
<stop stop-color="#00D1FF"/>
<stop offset="1" stop-color="#00D1FF" stop-opacity="0"/>
</radialGradient>
<radialGradient id="paint1_radial_2825_71606" cx="0" cy="0" r="1" gradientUnits="userSpaceOnUse" gradientTransform="translate(-8.41931e-07 35.0902) rotate(-46.6495) scale(4.81319 35.0795)">
<stop stop-color="#00D1FF"/>
<stop offset="1" stop-color="#00D1FF" stop-opacity="0"/>
</radialGradient>
<radialGradient id="paint2_radial_2825_71606" cx="0" cy="0" r="1" gradientUnits="userSpaceOnUse" gradientTransform="translate(163 23.7152) rotate(-112.761) scale(11.3867 44.0258)">
<stop stop-color="#00D1FF"/>
<stop offset="1" stop-color="#00D1FF" stop-opacity="0"/>
</radialGradient>
<radialGradient id="paint3_radial_2825_71606" cx="0" cy="0" r="1" gradientUnits="userSpaceOnUse" gradientTransform="translate(130.327 0.0902019) rotate(90) scale(16.625 37.7972)">
<stop stop-color="#00D1FF"/>
<stop offset="1" stop-color="#00D1FF" stop-opacity="0"/>
</radialGradient>
<radialGradient id="paint4_radial_2825_71606" cx="0" cy="0" r="1" gradientUnits="userSpaceOnUse" gradientTransform="translate(-8.41931e-07 35.0902) rotate(-46.6495) scale(4.81319 35.0795)">
<stop stop-color="#00D1FF"/>
<stop offset="1" stop-color="#00D1FF" stop-opacity="0"/>
</radialGradient>
<radialGradient id="paint5_radial_2825_71606" cx="0" cy="0" r="1" gradientUnits="userSpaceOnUse" gradientTransform="translate(163 23.7152) rotate(-112.761) scale(11.3867 44.0258)">
<stop stop-color="#00D1FF"/>
<stop offset="1" stop-color="#00D1FF" stop-opacity="0"/>
</radialGradient>
</defs>
</svg>
