<svg width="163" height="60" viewBox="0 0 163 60" fill="none" xmlns="http://www.w3.org/2000/svg">
<path d="M8.82292 6.5942C9.50402 2.77853 12.8224 0 16.6984 0H152.422C156.672 0 160.18 3.32337 160.41 7.56729L162.793 51.5673C163.042 56.1489 159.393 60 154.805 60H8.84431C3.86352 60 0.0935636 55.4975 0.968813 50.5942L8.82292 6.5942Z" fill="#1F3161"/>
<g filter="url(#filter0_ii_2825_71973)">
<path d="M8.82256 6.59367C9.50388 2.77825 12.8222 0 16.698 0H152.417C156.669 0 160.178 3.32615 160.406 7.57204L162.549 47.572C162.794 52.1519 159.146 56 154.56 56H9.55511C4.5741 56 0.804085 51.4971 1.6797 46.5937L8.82256 6.59367Z" fill="#2E4DA3"/>
</g>
<g opacity="0.04">
<mask id="mask0_2825_71973" style="mask-type:alpha" maskUnits="userSpaceOnUse" x="1" y="0" width="162" height="56">
<path d="M9.31477 6.68157C9.95352 3.10461 13.0644 0.5 16.698 0.5H152.417C156.403 0.5 159.693 3.61826 159.906 7.59879L162.049 47.5988C162.279 51.8924 158.86 55.5 154.56 55.5H9.55511C4.88541 55.5 1.35102 51.2786 2.17191 46.6816L9.31477 6.68157Z" fill="#0F77FF"/>
<path d="M9.31477 6.68157C9.95352 3.10461 13.0644 0.5 16.698 0.5H152.417C156.403 0.5 159.693 3.61826 159.906 7.59879L162.049 47.5988C162.279 51.8924 158.86 55.5 154.56 55.5H9.55511C4.88541 55.5 1.35102 51.2786 2.17191 46.6816L9.31477 6.68157Z" stroke="url(#paint0_radial_2825_71973)"/>
<path d="M9.31477 6.68157C9.95352 3.10461 13.0644 0.5 16.698 0.5H152.417C156.403 0.5 159.693 3.61826 159.906 7.59879L162.049 47.5988C162.279 51.8924 158.86 55.5 154.56 55.5H9.55511C4.88541 55.5 1.35102 51.2786 2.17191 46.6816L9.31477 6.68157Z" stroke="url(#paint1_radial_2825_71973)"/>
<path d="M9.31477 6.68157C9.95352 3.10461 13.0644 0.5 16.698 0.5H152.417C156.403 0.5 159.693 3.61826 159.906 7.59879L162.049 47.5988C162.279 51.8924 158.86 55.5 154.56 55.5H9.55511C4.88541 55.5 1.35102 51.2786 2.17191 46.6816L9.31477 6.68157Z" stroke="url(#paint2_radial_2825_71973)"/>
</mask>
<g mask="url(#mask0_2825_71973)">
<path d="M85.9952 51.6368C86.1201 51.5056 86.3063 51.4522 86.4819 51.4973L90.1755 52.4467C90.3473 52.4909 90.4828 52.6227 90.5317 52.7932L91.6001 56.5191C91.6489 56.6896 91.6039 56.8732 91.4816 57.0016L88.8523 59.7641C88.7274 59.8954 88.5412 59.9488 88.3657 59.9037L84.672 58.9542C84.5003 58.9101 84.3648 58.7783 84.3159 58.6078L83.2475 54.8819C83.1986 54.7114 83.2437 54.5278 83.3659 54.3993L85.9952 51.6368Z" fill="#E5F2FF"/>
<path d="M91.8033 44.6825C91.9282 44.5512 92.1144 44.4978 92.29 44.5429L94.1599 45.0236C94.3317 45.0677 94.4672 45.1996 94.5161 45.37L95.059 47.2633C95.1079 47.4337 95.0628 47.6173 94.9405 47.7458L93.6094 49.1444C93.4845 49.2757 93.2983 49.329 93.1227 49.2839L91.2527 48.8033C91.081 48.7591 90.9455 48.6273 90.8966 48.4568L90.3537 46.5636C90.3048 46.3931 90.3499 46.2095 90.4722 46.081L91.8033 44.6825Z" fill="#E5F2FF"/>
<path d="M97.8449 38.5424C97.9699 38.4111 98.1561 38.3577 98.3316 38.4028L98.9858 38.571C99.1576 38.6152 99.2931 38.747 99.342 38.9175L99.5345 39.5889C99.5834 39.7594 99.5383 39.943 99.4161 40.0714L98.9504 40.5607C98.8254 40.692 98.6392 40.7454 98.4637 40.7003L97.8095 40.5321C97.6377 40.488 97.5022 40.3561 97.4533 40.1857L97.2608 39.5142C97.2119 39.3438 97.257 39.1602 97.3792 39.0317L97.8449 38.5424Z" fill="#E5F2FF"/>
<path d="M112.264 34.4079C112.389 34.2766 112.575 34.2232 112.751 34.2683L113.405 34.4365C113.577 34.4806 113.712 34.6125 113.761 34.7829L113.953 35.4544C114.002 35.6248 113.957 35.8084 113.835 35.9369L113.369 36.4262C113.244 36.5575 113.058 36.6109 112.883 36.5658L112.228 36.3976C112.057 36.3534 111.921 36.2216 111.872 36.0511L111.68 35.3797C111.631 35.2092 111.676 35.0256 111.798 34.8972L112.264 34.4079Z" fill="#E5F2FF"/>
<path d="M126.683 30.2733C126.808 30.1421 126.994 30.0887 127.169 30.1338L127.824 30.302C127.995 30.3461 128.131 30.4779 128.18 30.6484L128.372 31.3199C128.421 31.4903 128.376 31.6739 128.254 31.8024L127.788 32.2917C127.663 32.423 127.477 32.4763 127.302 32.4312L126.647 32.2631C126.476 32.2189 126.34 32.0871 126.291 31.9166L126.099 31.2452C126.05 31.0747 126.095 30.8911 126.217 30.7627L126.683 30.2733Z" fill="#E5F2FF"/>
<path d="M141.102 26.1388C141.227 26.0076 141.413 25.9542 141.588 25.9993L142.243 26.1674C142.414 26.2116 142.55 26.3434 142.599 26.5139L142.791 27.1853C142.84 27.3558 142.795 27.5394 142.673 27.6679L142.207 28.1572C142.082 28.2884 141.896 28.3418 141.72 28.2967L141.066 28.1285C140.895 28.0844 140.759 27.9526 140.71 27.7821L140.518 27.1107C140.469 26.9402 140.514 26.7566 140.636 26.6281L141.102 26.1388Z" fill="#E5F2FF"/>
<path d="M155.521 22.0043C155.646 21.873 155.832 21.8196 156.007 21.8648L156.662 22.0329C156.833 22.0771 156.969 22.2089 157.018 22.3794L157.21 23.0508C157.259 23.2213 157.214 23.4049 157.092 23.5333L156.626 24.0226C156.501 24.1539 156.315 24.2073 156.139 24.1622L155.485 23.994C155.313 23.9499 155.178 23.8181 155.129 23.6476L154.936 22.9761C154.888 22.8057 154.933 22.6221 155.055 22.4936L155.521 22.0043Z" fill="#E5F2FF"/>
<path d="M106.222 40.5479C106.347 40.4167 106.533 40.3633 106.709 40.4084L108.579 40.8891C108.751 40.9332 108.886 41.065 108.935 41.2355L109.478 43.1287C109.527 43.2992 109.482 43.4828 109.359 43.6113L108.028 45.0099C107.903 45.1411 107.717 45.1945 107.542 45.1494L105.672 44.6687C105.5 44.6246 105.364 44.4928 105.316 44.3223L104.773 42.4291C104.724 42.2586 104.769 42.075 104.891 41.9465L106.222 40.5479Z" fill="#E5F2FF"/>
<path d="M120.641 36.4132C120.766 36.2819 120.952 36.2285 121.128 36.2736L122.998 36.7543C123.17 36.7985 123.305 36.9303 123.354 37.1007L123.897 38.994C123.946 39.1644 123.901 39.3481 123.778 39.4765L122.447 40.8751C122.322 41.0064 122.136 41.0598 121.961 41.0146L120.091 40.534C119.919 40.4898 119.783 40.358 119.734 40.1875L119.192 38.2943C119.143 38.1238 119.188 37.9402 119.31 37.8118L120.641 36.4132Z" fill="#E5F2FF"/>
<path d="M135.06 32.2787C135.185 32.1474 135.371 32.094 135.547 32.1391L137.417 32.6198C137.588 32.6639 137.724 32.7958 137.773 32.9662L138.316 34.8595C138.365 35.0299 138.32 35.2135 138.197 35.342L136.866 36.7406C136.741 36.8718 136.555 36.9252 136.38 36.8801L134.51 36.3994C134.338 36.3553 134.202 36.2235 134.153 36.053L133.61 34.1598C133.562 33.9893 133.607 33.8057 133.729 33.6772L135.06 32.2787Z" fill="#E5F2FF"/>
<path d="M149.479 28.1441C149.604 28.0129 149.79 27.9595 149.966 28.0046L151.836 28.4853C152.007 28.5294 152.143 28.6612 152.192 28.8317L152.735 30.7249C152.784 30.8954 152.738 31.079 152.616 31.2075L151.285 32.6061C151.16 32.7373 150.974 32.7907 150.798 32.7456L148.928 32.2649C148.757 32.2208 148.621 32.089 148.572 31.9185L148.029 30.0252C147.981 29.8548 148.026 29.6712 148.148 29.5427L149.479 28.1441Z" fill="#E5F2FF"/>
<path d="M163.898 24.0096C164.023 23.8783 164.209 23.8249 164.385 23.8701L166.255 24.3507C166.426 24.3949 166.562 24.5267 166.611 24.6972L167.154 26.5904C167.202 26.7609 167.157 26.9445 167.035 27.0729L165.704 28.4715C165.579 28.6028 165.393 28.6562 165.217 28.6111L163.347 28.1304C163.176 28.0863 163.04 27.9544 162.991 27.784L162.448 25.8907C162.399 25.7203 162.445 25.5367 162.567 25.4082L163.898 24.0096Z" fill="#E5F2FF"/>
<path d="M100.414 47.5023C100.539 47.371 100.725 47.3177 100.901 47.3628L104.594 48.3122C104.766 48.3564 104.902 48.4882 104.951 48.6586L106.019 52.3846C106.068 52.555 106.023 52.7386 105.901 52.8671L103.271 55.6296C103.146 55.7609 102.96 55.8143 102.785 55.7691L99.091 54.8197C98.9192 54.7756 98.7837 54.6437 98.7348 54.4733L97.6664 50.7474C97.6175 50.5769 97.6626 50.3933 97.7849 50.2648L100.414 47.5023Z" fill="#E5F2FF"/>
<path d="M114.833 43.3678C114.958 43.2365 115.144 43.1831 115.32 43.2282L119.013 44.1777C119.185 44.2218 119.321 44.3537 119.37 44.5241L120.438 48.25C120.487 48.4205 120.442 48.6041 120.319 48.7326L117.69 51.4951C117.565 51.6264 117.379 51.6797 117.204 51.6346L113.51 50.6852C113.338 50.641 113.203 50.5092 113.154 50.3387L112.085 46.6128C112.036 46.4424 112.082 46.2588 112.204 46.1303L114.833 43.3678Z" fill="#E5F2FF"/>
<path d="M129.252 39.2333C129.377 39.102 129.563 39.0486 129.739 39.0937L133.432 40.0432C133.604 40.0873 133.74 40.2191 133.788 40.3896L134.857 44.1155C134.906 44.286 134.861 44.4696 134.738 44.5981L132.109 47.3606C131.984 47.4918 131.798 47.5452 131.622 47.5001L127.929 46.5507C127.757 46.5065 127.622 46.3747 127.573 46.2042L126.504 42.4783C126.455 42.3078 126.5 42.1242 126.623 41.9958L129.252 39.2333Z" fill="#E5F2FF"/>
<path d="M143.671 35.0985C143.796 34.9672 143.982 34.9138 144.158 34.959L147.851 35.9084C148.023 35.9525 148.158 36.0844 148.207 36.2548L149.276 39.9808C149.325 40.1512 149.28 40.3348 149.157 40.4633L146.528 43.2258C146.403 43.3571 146.217 43.4105 146.041 43.3653L142.348 42.4159C142.176 42.3718 142.04 42.2399 141.992 42.0695L140.923 38.3435C140.874 38.1731 140.919 37.9895 141.042 37.861L143.671 35.0985Z" fill="#E5F2FF"/>
<path d="M158.09 30.964C158.215 30.8327 158.401 30.7793 158.576 30.8244L162.27 31.7739C162.442 31.818 162.577 31.9498 162.626 32.1203L163.695 35.8462C163.744 36.0167 163.698 36.2003 163.576 36.3288L160.947 39.0913C160.822 39.2225 160.636 39.2759 160.46 39.2308L156.767 38.2814C156.595 38.2372 156.459 38.1054 156.411 37.9349L155.342 34.209C155.293 34.0386 155.338 33.8549 155.461 33.7265L158.09 30.964Z" fill="#E5F2FF"/>
<path d="M95.3067 56.9004C95.4317 56.7691 95.6179 56.7157 95.7934 56.7608L100.905 58.0749C101.077 58.119 101.213 58.2509 101.262 58.4213L102.739 63.5727C102.788 63.7431 102.743 63.9267 102.62 64.0552L98.9813 67.8785C98.8564 68.0098 98.6702 68.0632 98.4947 68.0181L93.3826 66.704C93.2109 66.6599 93.0753 66.5281 93.0265 66.3576L91.5493 61.2063C91.5005 61.0358 91.5455 60.8522 91.6678 60.7237L95.3067 56.9004Z" fill="#E5F2FF"/>
<path d="M109.726 52.7656C109.851 52.6344 110.037 52.581 110.212 52.6261L115.324 53.9401C115.496 53.9843 115.632 54.1161 115.68 54.2866L117.158 59.4379C117.207 59.6084 117.161 59.792 117.039 59.9204L113.4 63.7438C113.275 63.875 113.089 63.9284 112.914 63.8833L107.802 62.5693C107.63 62.5251 107.494 62.3933 107.445 62.2228L105.968 57.0715C105.919 56.901 105.964 56.7174 106.087 56.589L109.726 52.7656Z" fill="#E5F2FF"/>
<path d="M124.145 48.6311C124.27 48.4998 124.456 48.4464 124.631 48.4916L129.743 49.8056C129.915 49.8497 130.051 49.9816 130.099 50.152L131.577 55.3034C131.625 55.4738 131.58 55.6574 131.458 55.7859L127.819 59.6092C127.694 59.7405 127.508 59.7939 127.333 59.7488L122.22 58.4348C122.049 58.3906 121.913 58.2588 121.864 58.0883L120.387 52.937C120.338 52.7665 120.383 52.5829 120.506 52.4544L124.145 48.6311Z" fill="#E5F2FF"/>
<path d="M138.563 44.4966C138.688 44.3653 138.875 44.3119 139.05 44.357L144.162 45.6711C144.334 45.7152 144.469 45.847 144.518 46.0175L145.995 51.1688C146.044 51.3393 145.999 51.5229 145.877 51.6514L142.238 55.4747C142.113 55.606 141.927 55.6594 141.751 55.6143L136.639 54.3002C136.468 54.2561 136.332 54.1243 136.283 53.9538L134.806 48.8024C134.757 48.632 134.802 48.4484 134.925 48.3199L138.563 44.4966Z" fill="#E5F2FF"/>
<path d="M152.982 40.3621C153.107 40.2308 153.294 40.1774 153.469 40.2225L158.581 41.5365C158.753 41.5807 158.888 41.7125 158.937 41.883L160.414 47.0343C160.463 47.2048 160.418 47.3884 160.296 47.5169L156.657 51.3402C156.532 51.4715 156.346 51.5249 156.17 51.4797L151.058 50.1657C150.887 50.1216 150.751 49.9897 150.702 49.8193L149.225 44.6679C149.176 44.4975 149.221 44.3139 149.343 44.1854L152.982 40.3621Z" fill="#E5F2FF"/>
<path d="M133.923 55.5238C134.048 55.3925 134.234 55.3391 134.41 55.3842L141.143 57.1149C141.315 57.1591 141.45 57.2909 141.499 57.4614L143.443 64.2418C143.492 64.4122 143.447 64.5958 143.325 64.7243L138.532 69.76C138.407 69.8913 138.221 69.9447 138.045 69.8995L131.312 68.1688C131.141 68.1247 131.005 67.9929 130.956 67.8224L129.012 61.042C128.963 60.8715 129.008 60.6879 129.13 60.5595L133.923 55.5238Z" fill="#E5F2FF"/>
<path d="M148.342 51.3892C148.467 51.258 148.653 51.2046 148.829 51.2497L155.562 52.9804C155.734 53.0246 155.869 53.1564 155.918 53.3268L157.862 60.1072C157.911 60.2777 157.866 60.4613 157.744 60.5898L152.951 65.6255C152.826 65.7568 152.64 65.8101 152.464 65.765L145.731 64.0343C145.56 63.9902 145.424 63.8583 145.375 63.6879L143.431 56.9075C143.382 56.737 143.427 56.5534 143.549 56.4249L148.342 51.3892Z" fill="#E5F2FF"/>
<path d="M162.761 47.2545C162.886 47.1232 163.072 47.0698 163.248 47.1149L169.981 48.8456C170.153 48.8898 170.288 49.0216 170.337 49.1921L172.281 55.9725C172.33 56.1429 172.285 56.3265 172.163 56.455L167.37 61.4907C167.245 61.622 167.059 61.6754 166.883 61.6303L160.15 59.8995C159.978 59.8554 159.843 59.7236 159.794 59.5531L157.85 52.7727C157.801 52.6022 157.846 52.4186 157.968 52.2902L162.761 47.2545Z" fill="#E5F2FF"/>
<path d="M6.76308 21.8646C6.9386 21.8195 7.1248 21.8729 7.24974 22.0042L7.71544 22.4935C7.8377 22.6219 7.88277 22.8056 7.83389 22.976L7.64136 23.6475C7.59248 23.8179 7.45696 23.9498 7.2852 23.9939L6.63098 24.1621C6.45545 24.2072 6.26926 24.1538 6.14432 24.0225L5.67862 23.5332C5.55636 23.4048 5.51129 23.2212 5.56017 23.0507L5.7527 22.3793C5.80158 22.2088 5.9371 22.077 6.10885 22.0328L6.76308 21.8646Z" fill="#E5F2FF"/>
<path d="M21.182 25.9992C21.3575 25.954 21.5437 26.0074 21.6687 26.1387L22.1344 26.628C22.2566 26.7565 22.3017 26.9401 22.2528 27.1105L22.0603 27.782C22.0114 27.9525 21.8759 28.0843 21.7041 28.1284L21.0499 28.2966C20.8744 28.3417 20.6882 28.2883 20.5632 28.157L20.0975 27.6677C19.9753 27.5393 19.9302 27.3557 19.9791 27.1852L20.1716 26.5138C20.2205 26.3433 20.356 26.2115 20.5278 26.1673L21.182 25.9992Z" fill="#E5F2FF"/>
<path d="M35.6009 30.1337C35.7765 30.0886 35.9627 30.142 36.0876 30.2732L36.5533 30.7625C36.6756 30.891 36.7206 31.0746 36.6718 31.2451L36.4792 31.9165C36.4303 32.087 36.2948 32.2188 36.1231 32.2629L35.4688 32.4311C35.2933 32.4762 35.1071 32.4228 34.9822 32.2916L34.5165 31.8023C34.3942 31.6738 34.3491 31.4902 34.398 31.3197L34.5906 30.6483C34.6394 30.4778 34.775 30.346 34.9467 30.3019L35.6009 30.1337Z" fill="#E5F2FF"/>
<path d="M50.0199 34.2685C50.1954 34.2233 50.3816 34.2767 50.5065 34.408L50.9722 34.8973C51.0945 35.0258 51.1396 35.2094 51.0907 35.3798L50.8981 36.0513C50.8493 36.2217 50.7137 36.3536 50.542 36.3977L49.8878 36.5659C49.7122 36.611 49.526 36.5576 49.4011 36.4263L48.9354 35.937C48.8131 35.8086 48.7681 35.625 48.8169 35.4545L49.0095 34.7831C49.0584 34.6126 49.1939 34.4808 49.3656 34.4366L50.0199 34.2685Z" fill="#E5F2FF"/>
<path d="M64.4388 38.403C64.6143 38.3579 64.8005 38.4112 64.9254 38.5425L65.3911 39.0318C65.5134 39.1603 65.5585 39.3439 65.5096 39.5144L65.3171 40.1858C65.2682 40.3563 65.1327 40.4881 64.9609 40.5322L64.3067 40.7004C64.1312 40.7455 63.945 40.6921 63.82 40.5609L63.3543 40.0716C63.2321 39.9431 63.187 39.7595 63.2359 39.589L63.4284 38.9176C63.4773 38.7471 63.6128 38.6153 63.7846 38.5711L64.4388 38.403Z" fill="#E5F2FF"/>
<path d="M12.8047 28.0046C12.9803 27.9595 13.1664 28.0129 13.2914 28.1441L14.6225 29.5427C14.7448 29.6712 14.7898 29.8548 14.741 30.0253L14.1981 31.9185C14.1492 32.089 14.0137 32.2208 13.8419 32.2649L11.9719 32.7456C11.7964 32.7907 11.6102 32.7373 11.4853 32.6061L10.1542 31.2075C10.0319 31.079 9.98682 30.8954 10.0357 30.725L10.5786 28.8317C10.6275 28.6612 10.763 28.5294 10.9347 28.4853L12.8047 28.0046Z" fill="#E5F2FF"/>
<path d="M27.2237 32.1391C27.3992 32.094 27.5854 32.1474 27.7103 32.2787L29.0414 33.6773C29.1637 33.8057 29.2088 33.9893 29.1599 34.1598L28.617 36.053C28.5681 36.2235 28.4326 36.3553 28.2609 36.3995L26.3909 36.8801C26.2153 36.9252 26.0292 36.8719 25.9042 36.7406L24.5731 35.342C24.4508 35.2135 24.4058 35.0299 24.4546 34.8595L24.9975 32.9662C25.0464 32.7958 25.1819 32.6639 25.3537 32.6198L27.2237 32.1391Z" fill="#E5F2FF"/>
<path d="M4.1939 30.8244C4.36943 30.7793 4.55562 30.8327 4.68056 30.9639L7.30983 33.7265C7.43209 33.8549 7.47716 34.0385 7.42828 34.209L6.35989 37.9349C6.31101 38.1054 6.17549 38.2372 6.00373 38.2813L2.31009 39.2308C2.13456 39.2759 1.94837 39.2225 1.82343 39.0912L-0.805836 36.3287C-0.928096 36.2003 -0.973168 36.0167 -0.924287 35.8462L0.144103 32.1203C0.192984 31.9498 0.328503 31.818 0.500257 31.7738L4.1939 30.8244Z" fill="#E5F2FF"/>
<path d="M18.6128 34.9589C18.7884 34.9138 18.9745 34.9672 19.0995 35.0985L21.7288 37.861C21.851 37.9894 21.8961 38.173 21.8472 38.3435L20.7788 42.0694C20.7299 42.2399 20.5944 42.3717 20.4227 42.4159L16.729 43.3653C16.5535 43.4104 16.3673 43.357 16.2424 43.2258L13.6131 40.4633C13.4908 40.3348 13.4458 40.1512 13.4946 39.9807L14.563 36.2548C14.6119 36.0843 14.7474 35.9525 14.9192 35.9084L18.6128 34.9589Z" fill="#E5F2FF"/>
<path d="M9.30131 40.2225C9.47683 40.1773 9.66303 40.2307 9.78797 40.362L13.4269 44.1853C13.5492 44.3138 13.5942 44.4974 13.5454 44.6679L12.0682 49.8192C12.0193 49.9897 11.8838 50.1215 11.7121 50.1657L6.60003 51.4797C6.42451 51.5248 6.23831 51.4714 6.11337 51.3401L2.47444 47.5168C2.35218 47.3884 2.30711 47.2047 2.35599 47.0343L3.83311 41.8829C3.88199 41.7125 4.01751 41.5806 4.18927 41.5365L9.30131 40.2225Z" fill="#E5F2FF"/>
<path d="M-0.477324 47.115C-0.301803 47.0698 -0.115609 47.1232 0.00933332 47.2545L4.80216 52.2902C4.92442 52.4187 4.96949 52.6023 4.92061 52.7728L2.97636 59.5531C2.92748 59.7236 2.79196 59.8554 2.62021 59.8996L-4.11286 61.6303C-4.28838 61.6754 -4.47457 61.622 -4.59951 61.4908L-9.39234 56.455C-9.5146 56.3266 -9.55967 56.143 -9.51079 55.9725L-7.56654 49.1921C-7.51766 49.0216 -7.38214 48.8898 -7.21039 48.8457L-0.477324 47.115Z" fill="#E5F2FF"/>
<path d="M28.3605 55.384C28.536 55.3389 28.7222 55.3923 28.8472 55.5236L33.64 60.5593C33.7623 60.6877 33.8073 60.8713 33.7585 61.0418L31.8142 67.8222C31.7653 67.9927 31.6298 68.1245 31.4581 68.1686L24.725 69.8993C24.5495 69.9445 24.3633 69.8911 24.2383 69.7598L19.4455 64.7241C19.3232 64.5956 19.2782 64.412 19.3271 64.2416L21.2713 57.4612C21.3202 57.2907 21.4557 57.1589 21.6275 57.1147L28.3605 55.384Z" fill="#E5F2FF"/>
<path d="M13.9416 51.2495C14.1171 51.2044 14.3033 51.2578 14.4282 51.389L19.2211 56.4247C19.3433 56.5532 19.3884 56.7368 19.3395 56.9073L17.3953 63.6877C17.3464 63.8581 17.2109 63.99 17.0391 64.0341L10.3061 65.7648C10.1305 65.8099 9.94434 65.7565 9.8194 65.6253L5.02657 60.5896C4.90431 60.4611 4.85924 60.2775 4.90812 60.107L6.85237 53.3266C6.90125 53.1562 7.03677 53.0243 7.20852 52.9802L13.9416 51.2495Z" fill="#E5F2FF"/>
<path d="M23.7202 44.357C23.8958 44.3119 24.082 44.3653 24.2069 44.4965L27.8458 48.3199C27.9681 48.4483 28.0132 48.6319 27.9643 48.8024L26.4872 53.9537C26.4383 54.1242 26.3028 54.256 26.131 54.3002L21.019 55.6142C20.8434 55.6593 20.6572 55.6059 20.5323 55.4747L16.8934 51.6513C16.7711 51.5229 16.726 51.3393 16.7749 51.1688L18.252 46.0175C18.3009 45.847 18.4364 45.7152 18.6082 45.671L23.7202 44.357Z" fill="#E5F2FF"/>
<path d="M33.0317 39.0937C33.2073 39.0486 33.3935 39.102 33.5184 39.2332L36.1477 41.9957C36.2699 42.1242 36.315 42.3078 36.2661 42.4783L35.1977 46.2042C35.1489 46.3747 35.0133 46.5065 34.8416 46.5506L31.1479 47.5001C30.9724 47.5452 30.7862 47.4918 30.6613 47.3605L28.032 44.598C27.9097 44.4696 27.8647 44.286 27.9136 44.1155L28.9819 40.3896C29.0308 40.2191 29.1663 40.0873 29.3381 40.0431L33.0317 39.0937Z" fill="#E5F2FF"/>
<path d="M41.6426 36.2736C41.8181 36.2285 42.0043 36.2819 42.1292 36.4132L43.4604 37.8118C43.5826 37.9402 43.6277 38.1238 43.5788 38.2943L43.036 40.1875C42.9871 40.358 42.8516 40.4898 42.6798 40.534L40.8098 41.0147C40.6343 41.0598 40.4481 41.0064 40.3231 40.8751L38.992 39.4765C38.8698 39.3481 38.8247 39.1645 38.8736 38.994L39.4164 37.1008C39.4653 36.9303 39.6008 36.7985 39.7726 36.7543L41.6426 36.2736Z" fill="#E5F2FF"/>
<path d="M56.0615 40.4082C56.237 40.363 56.4232 40.4164 56.5482 40.5477L57.8793 41.9463C58.0016 42.0748 58.0466 42.2584 57.9977 42.4288L57.4549 44.3221C57.406 44.4925 57.2705 44.6243 57.0987 44.6685L55.2287 45.1492C55.0532 45.1943 54.867 45.1409 54.7421 45.0096L53.4109 43.611C53.2887 43.4826 53.2436 43.299 53.2925 43.1285L53.8354 41.2353C53.8842 41.0648 54.0198 40.933 54.1915 40.8888L56.0615 40.4082Z" fill="#E5F2FF"/>
<path d="M70.4804 44.5429C70.656 44.4978 70.8422 44.5512 70.9671 44.6825L72.2982 46.0811C72.4205 46.2095 72.4656 46.3931 72.4167 46.5636L71.8738 48.4568C71.8249 48.6273 71.6894 48.7591 71.5176 48.8033L69.6477 49.2839C69.4721 49.3291 69.2859 49.2757 69.161 49.1444L67.8299 47.7458C67.7076 47.6174 67.6625 47.4337 67.7114 47.2633L68.2543 45.37C68.3032 45.1996 68.4387 45.0678 68.6104 45.0236L70.4804 44.5429Z" fill="#E5F2FF"/>
<path d="M47.4507 43.2282C47.6262 43.1831 47.8124 43.2365 47.9373 43.3678L50.5666 46.1303C50.6889 46.2587 50.7339 46.4423 50.6851 46.6128L49.6167 50.3387C49.5678 50.5092 49.4323 50.641 49.2605 50.6851L45.5669 51.6346C45.3913 51.6797 45.2051 51.6263 45.0802 51.495L42.4509 48.7325C42.3287 48.6041 42.2836 48.4205 42.3325 48.25L43.4009 44.5241C43.4498 44.3536 43.5853 44.2218 43.757 44.1776L47.4507 43.2282Z" fill="#E5F2FF"/>
<path d="M61.8696 47.3627C62.0451 47.3176 62.2313 47.371 62.3563 47.5023L64.9855 50.2648C65.1078 50.3932 65.1529 50.5768 65.104 50.7473L64.0356 54.4732C63.9867 54.6437 63.8512 54.7755 63.6794 54.8197L59.9858 55.7691C59.8103 55.8142 59.6241 55.7608 59.4991 55.6296L56.8699 52.8671C56.7476 52.7386 56.7025 52.555 56.7514 52.3845L57.8198 48.6586C57.8687 48.4881 58.0042 48.3563 58.176 48.3122L61.8696 47.3627Z" fill="#E5F2FF"/>
<path d="M76.2885 51.4973C76.4641 51.4521 76.6502 51.5055 76.7752 51.6368L79.4045 54.3993C79.5267 54.5278 79.5718 54.7114 79.5229 54.8818L78.4545 58.6078C78.4056 58.7782 78.2701 58.91 78.0984 58.9542L74.4047 59.9036C74.2292 59.9487 74.043 59.8954 73.9181 59.7641L71.2888 57.0016C71.1665 56.8731 71.1215 56.6895 71.1703 56.519L72.2387 52.7931C72.2876 52.6227 72.4231 52.4908 72.5949 52.4467L76.2885 51.4973Z" fill="#E5F2FF"/>
<path d="M38.1392 48.4915C38.3147 48.4464 38.5009 48.4998 38.6258 48.6311L42.2647 52.4544C42.387 52.5828 42.4321 52.7665 42.3832 52.9369L40.9061 58.0883C40.8572 58.2587 40.7217 58.3906 40.5499 58.4347L35.4379 59.7487C35.2624 59.7939 35.0762 59.7405 34.9512 59.6092L31.3123 55.7859C31.19 55.6574 31.145 55.4738 31.1938 55.3033L32.671 50.152C32.7198 49.9815 32.8554 49.8497 33.0271 49.8055L38.1392 48.4915Z" fill="#E5F2FF"/>
<path d="M52.5581 52.6263C52.7336 52.5812 52.9198 52.6345 53.0447 52.7658L56.6837 56.5892C56.8059 56.7176 56.851 56.9012 56.8021 57.0717L55.325 62.223C55.2761 62.3935 55.1406 62.5253 54.9688 62.5695L49.8568 63.8835C49.6813 63.9286 49.4951 63.8752 49.3701 63.7439L45.7312 59.9206C45.609 59.7922 45.5639 59.6086 45.6128 59.4381L47.0899 54.2867C47.1388 54.1163 47.2743 53.9845 47.446 53.9403L52.5581 52.6263Z" fill="#E5F2FF"/>
<path d="M66.977 56.7608C67.1525 56.7157 67.3387 56.7691 67.4637 56.9003L71.1026 60.7237C71.2249 60.8521 71.2699 61.0357 71.221 61.2062L69.7439 66.3575C69.695 66.528 69.5595 66.6598 69.3878 66.704L64.2757 68.018C64.1002 68.0631 63.914 68.0097 63.7891 67.8785L60.1501 64.0551C60.0279 63.9267 59.9828 63.7431 60.0317 63.5726L61.5088 58.4213C61.5577 58.2508 61.6932 58.119 61.865 58.0748L66.977 56.7608Z" fill="#E5F2FF"/>
</g>
</g>
<path d="M44.9258 31V27.4492H41.4922V31H39.2246V22.5977C39.2246 22.4609 39.2676 22.3477 39.3535 22.2578C39.4434 22.1641 39.5781 22.1172 39.7578 22.1172H41.4922V25.457H44.9258V22.1172H47.1934V30.4961C47.1934 30.6602 47.1426 30.7852 47.041 30.8711C46.9434 30.957 46.8086 31 46.6367 31H44.9258ZM57.6641 26.5586C57.6641 27.8633 57.207 28.9609 56.293 29.8516C55.3828 30.7305 54.2734 31.1699 52.9648 31.1699C51.6914 31.1699 50.5996 30.7383 49.6895 29.875C48.7598 29 48.2949 27.9316 48.2949 26.6699C48.2949 25.998 48.4102 25.3652 48.6406 24.7715C48.7617 24.4551 48.9551 24.123 49.2207 23.7754C50.1426 22.5605 51.3945 21.9531 52.9766 21.9531C54.2812 21.9531 55.3867 22.3945 56.293 23.2773C57.207 24.1641 57.6641 25.2578 57.6641 26.5586ZM55.3965 26.5703C55.3965 25.8555 55.1777 25.2461 54.7402 24.7422C54.2754 24.2109 53.6914 23.9453 52.9883 23.9453C52.2773 23.9453 51.6914 24.2031 51.2305 24.7188C50.7852 25.2148 50.5625 25.8203 50.5625 26.5352C50.5625 27.2656 50.7871 27.8828 51.2363 28.3867C51.7012 28.9141 52.293 29.1777 53.0117 29.1777C53.7031 29.1777 54.2793 28.9121 54.7402 28.3809C55.1777 27.877 55.3965 27.2734 55.3965 26.5703ZM66.7871 31H65.8027C65.6191 31 65.4805 30.9629 65.3867 30.8887C65.293 30.8105 65.2188 30.6895 65.1641 30.5254L63.9746 26.4531H63.9512L62.7559 30.5254C62.7168 30.6895 62.6367 30.8105 62.5156 30.8887C62.3984 30.9629 62.252 31 62.0762 31H61.1094C60.9453 31 60.8047 30.9629 60.6875 30.8887C60.5703 30.8105 60.4883 30.6895 60.4414 30.5254L58.2734 22.1172H60.5762L61.7832 27.8945H61.7891L62.9434 24.3848C62.9785 24.2363 63.0449 24.125 63.1426 24.0508C63.2441 23.9727 63.3984 23.9336 63.6055 23.9336H64.3672C64.5312 23.9336 64.6602 23.9688 64.7539 24.0391C64.8516 24.1055 64.9219 24.2051 64.9648 24.3379L66.1191 27.918H66.125L67.3555 22.1172H69.6523L67.4258 30.5137C67.375 30.6777 67.2988 30.8008 67.1973 30.8828C67.0957 30.9609 66.959 31 66.7871 31ZM77.7441 24.1094V30.4434C77.7441 30.8145 77.541 31 77.1348 31H75.4766V24.1094H73.7246V22.8789C73.7246 22.7539 73.7363 22.6484 73.7598 22.5625C73.7832 22.4727 73.832 22.3887 73.9062 22.3105C73.9844 22.2324 74.0703 22.1816 74.1641 22.1582C74.2578 22.1309 74.3652 22.1172 74.4863 22.1172H79.4844V23.4766C79.4844 23.5781 79.4668 23.668 79.4316 23.7461C79.4004 23.8242 79.3555 23.8906 79.2969 23.9453C79.2383 24 79.1719 24.041 79.0977 24.0684C79.0234 24.0957 78.9453 24.1094 78.8633 24.1094H77.7441ZM89.4453 26.5586C89.4453 27.8633 88.9883 28.9609 88.0742 29.8516C87.1641 30.7305 86.0547 31.1699 84.7461 31.1699C83.4727 31.1699 82.3809 30.7383 81.4707 29.875C80.541 29 80.0762 27.9316 80.0762 26.6699C80.0762 25.998 80.1914 25.3652 80.4219 24.7715C80.543 24.4551 80.7363 24.123 81.002 23.7754C81.9238 22.5605 83.1758 21.9531 84.7578 21.9531C86.0625 21.9531 87.168 22.3945 88.0742 23.2773C88.9883 24.1641 89.4453 25.2578 89.4453 26.5586ZM87.1777 26.5703C87.1777 25.8555 86.959 25.2461 86.5215 24.7422C86.0566 24.2109 85.4727 23.9453 84.7695 23.9453C84.0586 23.9453 83.4727 24.2031 83.0117 24.7188C82.5664 25.2148 82.3438 25.8203 82.3438 26.5352C82.3438 27.2656 82.5684 27.8828 83.0176 28.3867C83.4824 28.9141 84.0742 29.1777 84.793 29.1777C85.4844 29.1777 86.0605 28.9121 86.5215 28.3809C86.959 27.877 87.1777 27.2734 87.1777 26.5703ZM96.5469 30.502C96.5469 30.6855 96.4902 30.8145 96.377 30.8887C96.2637 30.9629 96.1191 31 95.9434 31H94.373V22.6445C94.373 22.4766 94.4102 22.3477 94.4844 22.2578C94.5586 22.1641 94.6934 22.1172 94.8887 22.1172H97.2793C97.5605 22.1172 97.7969 22.123 97.9883 22.1348C98.2539 22.1504 98.4961 22.1777 98.7148 22.2168C99.2539 22.3105 99.6875 22.4941 100.016 22.7676C100.711 23.3574 101.059 24.1406 101.059 25.1172C101.059 25.5508 100.98 25.9727 100.824 26.3828C100.652 26.8281 100.418 27.1836 100.121 27.4492C99.7656 27.7578 99.3613 27.9688 98.9082 28.082C98.5605 28.1719 98.1016 28.2168 97.5312 28.2168H96.875V26.6816C96.875 26.5215 96.9062 26.4062 96.9688 26.3359C97.0312 26.2617 97.1465 26.2246 97.3145 26.2246H97.4668C97.9043 26.2246 98.2344 26.1582 98.457 26.0254C98.7422 25.8574 98.8848 25.5684 98.8848 25.1582C98.8848 24.7402 98.7285 24.4492 98.416 24.2852C98.1895 24.168 97.8457 24.1094 97.3848 24.1094H96.5469V30.502ZM102.061 31V22.8262C102.061 22.5645 102.125 22.3809 102.254 22.2754C102.387 22.1699 102.605 22.1172 102.91 22.1172H104.328V29.0078H108.189V30.1621C108.189 30.7207 107.906 31 107.34 31H102.061ZM111.98 29.7168L112.396 28.3633C112.439 28.2148 112.504 28.1035 112.59 28.0293C112.676 27.9551 112.795 27.918 112.947 27.918H114.09C114 27.6211 113.918 27.3516 113.844 27.1094C113.773 26.8672 113.703 26.6309 113.633 26.4004C113.566 26.166 113.496 25.9277 113.422 25.6855C113.352 25.4434 113.27 25.1758 113.176 24.8828C113.172 24.875 113.166 24.8711 113.158 24.8711C113.15 24.8711 113.145 24.875 113.141 24.8828L111.137 31H108.699L112.15 22.3867C112.182 22.2969 112.227 22.2305 112.285 22.1875C112.348 22.1406 112.436 22.1172 112.549 22.1172H113.779C113.881 22.1172 113.961 22.1426 114.02 22.1934C114.078 22.2402 114.125 22.3047 114.16 22.3867L117.582 31H115.121L114.688 29.7168H111.98ZM121.836 27.7715V30.3965C121.836 30.5137 121.828 30.6113 121.812 30.6895C121.797 30.7637 121.764 30.8242 121.713 30.8711C121.666 30.918 121.598 30.9512 121.508 30.9707C121.418 30.9902 121.299 31 121.15 31H119.568V27.7715L117.137 22.5977C117.086 22.4961 117.064 22.4141 117.072 22.3516C117.084 22.2891 117.113 22.2402 117.16 22.2051C117.207 22.1699 117.266 22.1465 117.336 22.1348C117.406 22.123 117.477 22.1172 117.547 22.1172H119.1C119.201 22.1172 119.279 22.1348 119.334 22.1699C119.393 22.2012 119.436 22.2637 119.463 22.3574L120.693 25.6855L121.941 22.3398C121.965 22.2695 121.996 22.2148 122.035 22.1758C122.074 22.1367 122.145 22.1172 122.246 22.1172H123.887C123.957 22.1172 124.025 22.125 124.092 22.1406C124.158 22.1562 124.209 22.1836 124.244 22.2227C124.283 22.2578 124.305 22.3086 124.309 22.375C124.312 22.4375 124.287 22.5156 124.232 22.6094L121.836 27.7715Z" fill="#99BBFF"/>
<defs>
<filter id="filter0_ii_2825_71973" x="1.55289" y="-6" width="161.007" height="62" filterUnits="userSpaceOnUse" color-interpolation-filters="sRGB">
<feFlood flood-opacity="0" result="BackgroundImageFix"/>
<feBlend mode="normal" in="SourceGraphic" in2="BackgroundImageFix" result="shape"/>
<feColorMatrix in="SourceAlpha" type="matrix" values="0 0 0 0 0 0 0 0 0 0 0 0 0 0 0 0 0 0 127 0" result="hardAlpha"/>
<feOffset dy="-6"/>
<feGaussianBlur stdDeviation="8"/>
<feComposite in2="hardAlpha" operator="arithmetic" k2="-1" k3="1"/>
<feColorMatrix type="matrix" values="0 0 0 0 0.694118 0 0 0 0 0.776471 0 0 0 0 1 0 0 0 0.08 0"/>
<feBlend mode="normal" in2="shape" result="effect1_innerShadow_2825_71973"/>
<feColorMatrix in="SourceAlpha" type="matrix" values="0 0 0 0 0 0 0 0 0 0 0 0 0 0 0 0 0 0 127 0" result="hardAlpha"/>
<feOffset dy="-3"/>
<feGaussianBlur stdDeviation="2"/>
<feComposite in2="hardAlpha" operator="arithmetic" k2="-1" k3="1"/>
<feColorMatrix type="matrix" values="0 0 0 0 0.695833 0 0 0 0 0.776425 0 0 0 0 1 0 0 0 0.08 0"/>
<feBlend mode="normal" in2="effect1_innerShadow_2825_71973" result="effect2_innerShadow_2825_71973"/>
</filter>
<radialGradient id="paint0_radial_2825_71973" cx="0" cy="0" r="1" gradientUnits="userSpaceOnUse" gradientTransform="translate(130.327 0.0902019) rotate(90) scale(16.625 37.7972)">
<stop stop-color="#00D1FF"/>
<stop offset="1" stop-color="#00D1FF" stop-opacity="0"/>
</radialGradient>
<radialGradient id="paint1_radial_2825_71973" cx="0" cy="0" r="1" gradientUnits="userSpaceOnUse" gradientTransform="translate(-8.41931e-07 35.0902) rotate(-46.6495) scale(4.81319 35.0795)">
<stop stop-color="#00D1FF"/>
<stop offset="1" stop-color="#00D1FF" stop-opacity="0"/>
</radialGradient>
<radialGradient id="paint2_radial_2825_71973" cx="0" cy="0" r="1" gradientUnits="userSpaceOnUse" gradientTransform="translate(163 23.7152) rotate(-112.761) scale(11.3867 44.0258)">
<stop stop-color="#00D1FF"/>
<stop offset="1" stop-color="#00D1FF" stop-opacity="0"/>
</radialGradient>
</defs>
</svg>
