<svg width="30" height="34" viewBox="0 0 30 34" fill="none" xmlns="http://www.w3.org/2000/svg">
<g id="Lock">
<path id="Lock_2" fill-rule="evenodd" clip-rule="evenodd" d="M24.2045 9.32659V11.8822C27.0751 12.7782 29.1667 15.3768 29.1667 18.4806V26.7088C29.1667 30.5512 25.9811 33.6666 22.0537 33.6666H7.948C4.01893 33.6666 0.833334 30.5512 0.833334 26.7088V18.4806C0.833334 15.3768 2.92658 12.7782 5.79548 11.8822V9.32659C5.81241 4.3579 9.92778 0.333252 14.9746 0.333252C20.0892 0.333252 24.2045 4.3579 24.2045 9.32659ZM15.0085 3.23166C18.4464 3.23166 21.2408 5.96444 21.2408 9.32659V11.5228H8.75921V9.29347C8.77615 5.94788 11.5705 3.23166 15.0085 3.23166ZM16.4819 24.4248C16.4819 25.2364 15.8214 25.8823 14.9915 25.8823C14.1786 25.8823 13.5181 25.2364 13.5181 24.4248V20.748C13.5181 19.953 14.1786 19.3071 14.9915 19.3071C15.8214 19.3071 16.4819 19.953 16.4819 20.748V24.4248Z" fill="#F5F7FF"/>
</g>
</svg>
