<svg width="380" height="167" viewBox="0 0 380 167" fill="none" xmlns="http://www.w3.org/2000/svg">
<path d="M4.53554 1.87868C5.09814 1.31607 5.8612 1 6.65685 1H373.343C374.139 1 374.902 1.31607 375.464 1.87868L378.014 4.4287C378.624 5.03822 378.942 5.88046 378.887 6.74072L369.098 160.43C369.052 161.158 368.741 161.844 368.225 162.36L365.464 165.121C364.902 165.684 364.139 166 363.343 166H281.657C280.861 166 280.098 165.684 279.536 165.121L276.879 162.464C275.941 161.527 274.669 161 273.343 161H106.657C105.331 161 104.059 161.527 103.121 162.464L100.464 165.121C99.9019 165.684 99.1388 166 98.3431 166H16.6569C15.8612 166 15.0981 165.684 14.5355 165.121L11.7746 162.36C11.2586 161.844 10.9484 161.158 10.902 160.43L1.1129 6.74072C1.05811 5.88047 1.37599 5.03822 1.98551 4.4287L4.53554 1.87868Z" fill="#EBEEFA" stroke="#596899" stroke-width="2"/>
</svg>
