<svg width="120" height="40" viewBox="0 0 120 40" fill="none" xmlns="http://www.w3.org/2000/svg">
<path d="M7.35689 3.21554C7.73083 1.34584 9.37249 0 11.2792 0L115.121 0C117.645 0 119.538 2.3093 119.043 4.78446L112.643 36.7845C112.269 38.6542 110.628 40 108.721 40H4.87922C2.35503 40 0.461859 37.6907 0.956893 35.2155L7.35689 3.21554Z" fill="url(#paint0_linear_3488_8149)"/>
<path d="M46.0802 21.124C46.2306 21.124 46.2716 21.1878 46.2032 21.3154C45.6473 22.4502 44.8338 23.3708 43.7628 24.0771C42.6372 24.82 41.4477 25.1937 40.1945 25.1982C38.6814 25.2028 37.5034 24.6833 36.6603 23.6396C35.8172 22.5915 35.5551 21.3132 35.8741 19.8047C36.1932 18.2962 36.993 17.0225 38.2736 15.9834C39.5405 14.958 40.9305 14.4453 42.4435 14.4453C44.4077 14.4453 45.7566 15.2565 46.4904 16.8789C46.7137 17.3757 46.8299 17.877 46.839 18.3828C46.8435 18.5059 46.7706 18.5697 46.6202 18.5742H44.3644C44.1502 18.5879 44.0317 18.5059 44.0089 18.3281C43.7491 17.2891 43.0587 16.7695 41.9376 16.7695C41.1219 16.7695 40.3859 17.0726 39.7296 17.6787C39.1007 18.262 38.6997 18.9661 38.5265 19.791C38.3488 20.625 38.449 21.3382 38.8273 21.9307C39.2283 22.5596 39.839 22.874 40.6593 22.874C41.712 22.874 42.6098 22.3682 43.3527 21.3564C43.4575 21.1787 43.6147 21.1012 43.8243 21.124H46.0802ZM52.5607 25L52.7452 24.1592H52.7179C52.4399 24.5329 52.0525 24.8177 51.5558 25.0137C51.1274 25.1823 50.6785 25.2666 50.2091 25.2666C49.0379 25.2666 48.1743 24.8633 47.6183 24.0566C47.0805 23.2728 46.937 22.2907 47.1876 21.1104C47.4383 19.9482 48.0034 18.973 48.8829 18.1846C49.799 17.3688 50.8289 16.9609 51.9728 16.9609C52.4376 16.9609 52.8478 17.0475 53.2032 17.2207C53.5997 17.4121 53.8686 17.6901 54.0099 18.0547H54.0372L54.0782 17.8906C54.1147 17.7448 54.1534 17.6286 54.1945 17.542C54.24 17.4554 54.297 17.3893 54.3654 17.3438C54.4383 17.2936 54.5203 17.2617 54.6115 17.248C54.7072 17.2344 54.8165 17.2275 54.9396 17.2275H56.5392L55.0421 24.2617C55.0148 24.3984 54.976 24.5146 54.9259 24.6104C54.8758 24.7061 54.8097 24.7835 54.7277 24.8428C54.6456 24.8975 54.5431 24.9385 54.42 24.9658C54.297 24.9886 54.1512 25 53.9825 25H52.5607ZM53.3878 21.1104C53.5109 20.5407 53.4266 20.069 53.1349 19.6953C52.8478 19.3216 52.4217 19.1348 51.8566 19.1348C51.296 19.1348 50.7924 19.3307 50.3458 19.7227C49.9129 20.1009 49.6349 20.5726 49.5118 21.1377C49.3979 21.68 49.4845 22.1403 49.7716 22.5186C50.0678 22.9014 50.4871 23.0928 51.0294 23.0928C51.59 23.0928 52.0935 22.9036 52.5402 22.5254C52.9868 22.1471 53.2693 21.6755 53.3878 21.1104ZM65.4396 21.1104C65.1889 22.2952 64.5782 23.2796 63.6075 24.0635C62.646 24.8473 61.5682 25.2393 60.3741 25.2393C59.1801 25.2393 58.2687 24.8473 57.6398 24.0635C57.0063 23.2796 56.8149 22.2952 57.0656 21.1104C57.3208 19.9209 57.9314 18.9342 58.8976 18.1504C59.8592 17.3665 60.937 16.9746 62.131 16.9746C63.325 16.9746 64.2365 17.3665 64.8654 18.1504C65.5034 18.9342 65.6948 19.9209 65.4396 21.1104ZM63.1154 21.1104C63.2293 20.5726 63.1518 20.1146 62.8829 19.7363C62.6049 19.3444 62.1993 19.1484 61.6661 19.1484C61.1375 19.1484 60.6521 19.3444 60.2101 19.7363C59.7771 20.1146 59.5037 20.5726 59.3898 21.1104C59.2758 21.6436 59.3556 22.1016 59.629 22.4844C59.9025 22.8717 60.3035 23.0654 60.8322 23.0654C61.3654 23.0654 61.8553 22.8717 62.3019 22.4844C62.7303 22.1016 63.0014 21.6436 63.1154 21.1104Z" fill="#F5F7FF"/>
<g filter="url(#filter0_d_3488_8149)">
<path d="M82.4134 9.16189C82.8086 7.31761 84.4385 6 86.3246 6H109.052C111.599 6 113.497 8.34806 112.963 10.8381L108.678 30.8385C108.282 32.6828 106.653 34.0004 104.766 34.0004H82.0389C79.4923 34.0004 77.5941 31.6523 78.1277 29.1623L82.4134 9.16189Z" fill="white"/>
</g>
<defs>
<filter id="filter0_d_3488_8149" x="74.0374" y="2" width="43.0162" height="36.0005" filterUnits="userSpaceOnUse" color-interpolation-filters="sRGB">
<feFlood flood-opacity="0" result="BackgroundImageFix"/>
<feColorMatrix in="SourceAlpha" type="matrix" values="0 0 0 0 0 0 0 0 0 0 0 0 0 0 0 0 0 0 127 0" result="hardAlpha"/>
<feOffset/>
<feGaussianBlur stdDeviation="2"/>
<feComposite in2="hardAlpha" operator="out"/>
<feColorMatrix type="matrix" values="0 0 0 0 0 0 0 0 0 0 0 0 0 0 0 0 0 0 0.25 0"/>
<feBlend mode="normal" in2="BackgroundImageFix" result="effect1_dropShadow_3488_8149"/>
<feBlend mode="normal" in="SourceGraphic" in2="effect1_dropShadow_3488_8149" result="shape"/>
</filter>
<linearGradient id="paint0_linear_3488_8149" x1="57.7355" y1="0" x2="57.7355" y2="40" gradientUnits="userSpaceOnUse">
<stop stop-color="#2E54E5"/>
<stop offset="1" stop-color="#288CF5"/>
</linearGradient>
</defs>
</svg>
