<svg width="120" height="40" viewBox="0 0 120 40" fill="none" xmlns="http://www.w3.org/2000/svg">
<path d="M7.35689 3.21554C7.73083 1.34584 9.37249 0 11.2792 0L115.121 0C117.645 0 119.538 2.3093 119.043 4.78446L112.643 36.7845C112.269 38.6542 110.628 40 108.721 40H4.87922C2.35503 40 0.461859 37.6907 0.956893 35.2155L7.35689 3.21554Z" fill="url(#paint0_linear_3314_114679)"/>
<path d="M52.3898 25L54.1261 17.2412L54.1398 17.2002L50.5441 21.541C50.4575 21.6322 50.38 21.7005 50.3116 21.7461C50.2478 21.7871 50.1567 21.8076 50.0382 21.8076C49.9197 21.8076 49.84 21.7826 49.799 21.7324C49.7579 21.6777 49.7169 21.6139 49.6759 21.541L47.9054 17.207L47.8986 17.2412L46.3263 25H43.8927L45.9572 15.3135C46.0027 15.1084 46.1075 14.9443 46.2716 14.8213C46.4357 14.6982 46.6453 14.6367 46.9005 14.6367H49.088C49.3934 14.6367 49.5825 14.762 49.6554 15.0127L50.8517 18C50.8517 18.0046 50.854 18.0068 50.8585 18.0068C50.8631 18.0068 50.8699 18.0046 50.879 18L53.2784 15.0605C53.3696 14.9421 53.4767 14.8418 53.5997 14.7598C53.7228 14.6777 53.8709 14.6367 54.0441 14.6367H56.2657C56.4982 14.6367 56.6691 14.7005 56.7784 14.8281C56.8924 14.9512 56.9288 15.113 56.8878 15.3135L54.8234 25H52.3898ZM64.4484 14.1377C64.3937 14.3883 64.2797 14.6208 64.1066 14.835C64.0337 14.9215 63.9493 15.0104 63.8536 15.1016C63.7762 15.1745 63.6827 15.2542 63.5734 15.3408L63.2931 15.5596C63.1837 15.6416 63.0971 15.7122 63.0333 15.7715C62.8601 15.931 62.7508 16.0859 62.7052 16.2363H61.5157C61.5659 16.0267 61.673 15.8216 61.837 15.6211C61.9054 15.5436 61.9874 15.4616 62.0831 15.375C62.1515 15.3112 62.2381 15.236 62.3429 15.1494L62.6027 14.9375C62.6984 14.8555 62.7758 14.7848 62.8351 14.7256C62.9855 14.5706 63.0766 14.4225 63.1085 14.2812C63.1678 13.9987 63.0652 13.8574 62.8009 13.8574C62.6141 13.8574 62.4682 13.9258 62.3634 14.0625C62.295 14.1536 62.2358 14.304 62.1857 14.5137H60.9347C60.9392 14.4954 60.9438 14.4749 60.9484 14.4521L60.9552 14.3906C61.0646 13.8893 61.3289 13.4769 61.7482 13.1533C62.1538 12.8434 62.6095 12.6885 63.1154 12.6885C63.8126 12.6885 64.2478 12.9619 64.421 13.5088C64.4848 13.7139 64.4939 13.9235 64.4484 14.1377ZM63.1085 21.1104C63.2225 20.5726 63.145 20.1146 62.8761 19.7363C62.5981 19.3444 62.1948 19.1484 61.6661 19.1484C61.1375 19.1484 60.6521 19.3444 60.2101 19.7363C59.7771 20.1146 59.5037 20.5726 59.3898 21.1104C59.2758 21.6436 59.3556 22.1016 59.629 22.4844C59.9025 22.8717 60.3035 23.0654 60.8322 23.0654C61.3608 23.0654 61.8484 22.8717 62.295 22.4844C62.7234 22.1016 62.9946 21.6436 63.1085 21.1104ZM65.1866 18.6357C65.5558 19.3285 65.6378 20.1533 65.4327 21.1104C65.1821 22.2952 64.5737 23.2796 63.6075 24.0635C62.646 24.8473 61.5682 25.2393 60.3741 25.2393C59.1801 25.2393 58.2664 24.8473 57.6329 24.0635C57.004 23.2796 56.8149 22.2952 57.0656 21.1104C57.3208 19.9209 57.9292 18.9342 58.8907 18.1504C59.8569 17.3665 60.937 16.9746 62.131 16.9746C63.1837 16.9746 64.0177 17.2777 64.6329 17.8838C65.0203 17.6605 65.255 17.3597 65.337 16.9814H64.7902L65.0021 15.9834C65.0385 15.7874 65.1228 15.6462 65.255 15.5596C65.3917 15.4684 65.5854 15.4229 65.8361 15.4229H66.6837L66.3419 17.0293C66.1368 17.6901 65.8156 18.1823 65.3781 18.5059C65.3142 18.5514 65.2504 18.5947 65.1866 18.6357Z" fill="#F5F7FF"/>
<path d="M82.4134 9.16189C82.8086 7.31761 84.4385 6 86.3246 6H109.052C111.599 6 113.497 8.34806 112.963 10.8381L108.678 30.8385C108.282 32.6828 106.653 34.0004 104.766 34.0004H82.0389C79.4923 34.0004 77.5941 31.6523 78.1277 29.1623L82.4134 9.16189Z" fill="white"/>
<defs>
<linearGradient id="paint0_linear_3314_114679" x1="57.7355" y1="0" x2="57.7355" y2="40" gradientUnits="userSpaceOnUse">
<stop stop-color="#2E54E5"/>
<stop offset="1" stop-color="#288CF5"/>
</linearGradient>
</defs>
</svg>
