<svg width="120" height="40" viewBox="0 0 120 40" fill="none" xmlns="http://www.w3.org/2000/svg">
<path d="M7.35689 3.21554C7.73083 1.34584 9.37249 0 11.2792 0L115.121 0C117.645 0 119.538 2.3093 119.043 4.78446L112.643 36.7845C112.269 38.6542 110.628 40 108.721 40H4.87922C2.35503 40 0.461859 37.6907 0.956893 35.2155L7.35689 3.21554Z" fill="url(#paint0_linear_3314_115069)"/>
<g filter="url(#filter0_d_3314_115069)">
<path d="M11.3225 9.16189C11.7177 7.31761 13.3475 6 15.2337 6H37.9612C40.5077 6 42.4059 8.34806 41.8724 10.8381L37.5866 30.8385C37.1914 32.6828 35.5616 34.0004 33.6754 34.0004H10.9479C8.40136 34.0004 6.50315 31.6523 7.03672 29.1623L11.3225 9.16189Z" fill="white"/>
</g>
<path d="M61.6699 16.9609L60.1045 24.3506C60.0133 24.7835 59.7308 25 59.2568 25H57.3223L59.0244 16.9609H56.9805L57.2881 15.5254C57.32 15.3796 57.3587 15.2565 57.4043 15.1562C57.4544 15.0514 57.5319 14.9535 57.6367 14.8623C57.7461 14.7712 57.8577 14.7119 57.9717 14.6846C58.0902 14.6527 58.2201 14.6367 58.3613 14.6367H64.1924L63.8574 16.2227C63.8346 16.3411 63.7936 16.446 63.7344 16.5371C63.6751 16.6283 63.6045 16.7057 63.5225 16.7695C63.4404 16.8333 63.3516 16.8812 63.2559 16.9131C63.1647 16.945 63.0713 16.9609 62.9756 16.9609H61.6699ZM68.0615 25L68.9502 20.7754C69.055 20.2878 69.0527 19.9118 68.9434 19.6475C68.8066 19.3148 68.5059 19.1484 68.041 19.1484C67.5716 19.1484 67.2002 19.2943 66.9268 19.5859C66.6898 19.8366 66.5212 20.2035 66.4209 20.6865L65.5117 25H63.1875L65.252 15.1973C65.293 14.9967 65.3773 14.8532 65.5049 14.7666C65.6325 14.68 65.792 14.6367 65.9834 14.6367H67.6992L67.002 17.9453H67.0293C67.2891 17.6035 67.6286 17.3483 68.0479 17.1797C68.4079 17.0339 68.8044 16.9609 69.2373 16.9609C70.1579 16.9609 70.8027 17.2458 71.1719 17.8154C71.418 18.1982 71.5365 18.6471 71.5273 19.1621C71.5228 19.3672 71.4977 19.6087 71.4521 19.8867C71.4339 19.9961 71.4111 20.1237 71.3838 20.2695L70.5088 24.4258C70.4268 24.8086 70.167 25 69.7295 25H68.0615ZM77.8438 25L78.0283 24.1592H78.001C77.723 24.5329 77.3356 24.8177 76.8389 25.0137C76.4105 25.1823 75.9616 25.2666 75.4922 25.2666C74.321 25.2666 73.4574 24.8633 72.9014 24.0566C72.3636 23.2728 72.2201 22.2907 72.4707 21.1104C72.7214 19.9482 73.2865 18.973 74.166 18.1846C75.082 17.3688 76.112 16.9609 77.2559 16.9609C77.7207 16.9609 78.1309 17.0475 78.4863 17.2207C78.8828 17.4121 79.1517 17.6901 79.293 18.0547H79.3203L79.3613 17.8906C79.3978 17.7448 79.4365 17.6286 79.4775 17.542C79.5231 17.4554 79.5801 17.3893 79.6484 17.3438C79.7214 17.2936 79.8034 17.2617 79.8945 17.248C79.9902 17.2344 80.0996 17.2275 80.2227 17.2275H81.8223L80.3252 24.2617C80.2979 24.3984 80.2591 24.5146 80.209 24.6104C80.1589 24.7061 80.0928 24.7835 80.0107 24.8428C79.9287 24.8975 79.8262 24.9385 79.7031 24.9658C79.5801 24.9886 79.4342 25 79.2656 25H77.8438ZM78.6709 21.1104C78.7939 20.5407 78.7096 20.069 78.418 19.6953C78.1309 19.3216 77.7048 19.1348 77.1396 19.1348C76.5791 19.1348 76.0755 19.3307 75.6289 19.7227C75.196 20.1009 74.918 20.5726 74.7949 21.1377C74.681 21.68 74.7676 22.1403 75.0547 22.5186C75.3509 22.9014 75.7702 23.0928 76.3125 23.0928C76.873 23.0928 77.3766 22.9036 77.8232 22.5254C78.2699 22.1471 78.5524 21.6755 78.6709 21.1104ZM81.043 14.8281L80.8037 13.9326C80.7445 13.7822 80.7331 13.6523 80.7695 13.543C80.8105 13.429 80.9131 13.3356 81.0771 13.2627L84.4199 11.6494L84.7139 12.9209C84.764 13.0394 84.7572 13.1442 84.6934 13.2354C84.6296 13.3219 84.5316 13.3994 84.3994 13.4678L81.043 14.8281ZM78.7939 16.0381L78.3496 15.2314L77.5361 16.0381H75.123L77.4541 14.0078C77.5908 13.8893 77.7253 13.8118 77.8574 13.7754C77.9941 13.7344 78.1423 13.7139 78.3018 13.7139H78.8828C79.0423 13.7139 79.1699 13.7389 79.2656 13.7891C79.3659 13.8392 79.457 13.9235 79.5391 14.042L80.9199 16.0381H78.7939ZM85.8555 17.2344L85.6777 18.0752H85.7051C85.9785 17.7015 86.3659 17.4167 86.8672 17.2207C87.291 17.0521 87.7376 16.9678 88.207 16.9678C89.3828 16.9632 90.2487 17.3665 90.8047 18.1777C91.3424 18.957 91.486 19.9391 91.2354 21.124C90.9893 22.2861 90.4242 23.2614 89.54 24.0498C88.624 24.8656 87.5941 25.2734 86.4502 25.2734C85.9854 25.2734 85.5752 25.1868 85.2197 25.0137C84.8232 24.8223 84.5544 24.5443 84.4131 24.1797H84.3857L83.7979 26.9414C83.766 27.0872 83.7272 27.2035 83.6816 27.29C83.6361 27.3766 83.5768 27.4427 83.5039 27.4883C83.4355 27.5384 83.3535 27.5703 83.2578 27.584C83.1667 27.5977 83.0596 27.6045 82.9365 27.6045H81.3369L83.374 17.9727C83.4014 17.8359 83.4401 17.7197 83.4902 17.624C83.5404 17.5283 83.6064 17.4531 83.6885 17.3984C83.7751 17.3392 83.8776 17.2982 83.9961 17.2754C84.1191 17.248 84.265 17.2344 84.4336 17.2344H85.8555ZM85.0352 21.124C84.9121 21.6937 84.9964 22.1654 85.2881 22.5391C85.5752 22.9128 86.0013 23.0996 86.5664 23.0996C87.127 23.0996 87.6328 22.9036 88.084 22.5117C88.5124 22.1335 88.7881 21.6618 88.9111 21.0967C89.0251 20.5544 88.9385 20.0941 88.6514 19.7158C88.3551 19.333 87.9359 19.1416 87.3936 19.1416C86.833 19.1416 86.3271 19.3307 85.876 19.709C85.4339 20.0872 85.1536 20.5589 85.0352 21.124Z" fill="#F5F7FF"/>
<defs>
<filter id="filter0_d_3314_115069" x="2.94629" y="2" width="43.0164" height="36.0005" filterUnits="userSpaceOnUse" color-interpolation-filters="sRGB">
<feFlood flood-opacity="0" result="BackgroundImageFix"/>
<feColorMatrix in="SourceAlpha" type="matrix" values="0 0 0 0 0 0 0 0 0 0 0 0 0 0 0 0 0 0 127 0" result="hardAlpha"/>
<feOffset/>
<feGaussianBlur stdDeviation="2"/>
<feComposite in2="hardAlpha" operator="out"/>
<feColorMatrix type="matrix" values="0 0 0 0 0 0 0 0 0 0 0 0 0 0 0 0 0 0 0.25 0"/>
<feBlend mode="normal" in2="BackgroundImageFix" result="effect1_dropShadow_3314_115069"/>
<feBlend mode="normal" in="SourceGraphic" in2="effect1_dropShadow_3314_115069" result="shape"/>
</filter>
<linearGradient id="paint0_linear_3314_115069" x1="57.7355" y1="0" x2="57.7355" y2="40" gradientUnits="userSpaceOnUse">
<stop stop-color="#FC7749"/>
<stop offset="0.0001" stop-color="#FF6029"/>
<stop offset="1" stop-color="#FF965A"/>
</linearGradient>
</defs>
</svg>
