<svg width="120" height="40" viewBox="0 0 120 40" fill="none" xmlns="http://www.w3.org/2000/svg">
<path d="M7.35689 3.21554C7.73083 1.34584 9.37249 0 11.2792 0L115.121 0C117.645 0 119.538 2.3093 119.043 4.78446L112.643 36.7845C112.269 38.6542 110.628 40 108.721 40H4.87922C2.35503 40 0.461859 37.6907 0.956893 35.2155L7.35689 3.21554Z" fill="url(#paint0_linear_3314_115072)"/>
<g filter="url(#filter0_d_3314_115072)">
<path d="M11.3225 9.16189C11.7177 7.31761 13.3475 6 15.2337 6H37.9612C40.5077 6 42.4059 8.34806 41.8724 10.8381L37.5866 30.8385C37.1914 32.6828 35.5616 34.0004 33.6754 34.0004H10.9479C8.40136 34.0004 6.50315 31.6523 7.03672 29.1623L11.3225 9.16189Z" fill="white"/>
</g>
<path d="M61.6698 16.9609L60.1044 24.3506C60.0132 24.7835 59.7307 25 59.2567 25H57.3221L59.0243 16.9609H56.9803L57.288 15.5254C57.3199 15.3796 57.3586 15.2565 57.4042 15.1562C57.4543 15.0514 57.5318 14.9535 57.6366 14.8623C57.746 14.7712 57.8576 14.7119 57.9716 14.6846C58.09 14.6527 58.2199 14.6367 58.3612 14.6367H64.1923L63.8573 16.2227C63.8345 16.3411 63.7935 16.446 63.7343 16.5371C63.675 16.6283 63.6044 16.7057 63.5223 16.7695C63.4403 16.8333 63.3514 16.8812 63.2557 16.9131C63.1646 16.945 63.0712 16.9609 62.9755 16.9609H61.6698ZM72.8534 14.1035C72.6574 14.8099 72.2177 15.3385 71.5341 15.6895C70.969 15.9766 70.3036 16.1201 69.538 16.1201C68.7678 16.1201 68.1662 15.9766 67.7333 15.6895C67.2046 15.3385 66.9882 14.8099 67.0839 14.1035H68.6698C68.7883 14.3086 68.9637 14.4453 69.1962 14.5137C69.3648 14.5684 69.6109 14.5957 69.9344 14.5957C70.2033 14.5957 70.4403 14.5638 70.6454 14.5C70.9006 14.418 71.1102 14.2858 71.2743 14.1035H72.8534ZM68.9979 25L69.1825 24.1592H69.1552C68.8772 24.5329 68.4898 24.8177 67.993 25.0137C67.5647 25.1823 67.1158 25.2666 66.6464 25.2666C65.4751 25.2666 64.6115 24.8633 64.0555 24.0566C63.5178 23.2728 63.3742 22.2907 63.6249 21.1104C63.8755 19.9482 64.4406 18.973 65.3202 18.1846C66.2362 17.3688 67.2662 16.9609 68.41 16.9609C68.8749 16.9609 69.285 17.0475 69.6405 17.2207C70.037 17.4121 70.3059 17.6901 70.4471 18.0547H70.4745L70.5155 17.8906C70.552 17.7448 70.5907 17.6286 70.6317 17.542C70.6773 17.4554 70.7343 17.3893 70.8026 17.3438C70.8755 17.2936 70.9576 17.2617 71.0487 17.248C71.1444 17.2344 71.2538 17.2275 71.3768 17.2275H72.9764L71.4794 24.2617C71.452 24.3984 71.4133 24.5146 71.3632 24.6104C71.313 24.7061 71.2469 24.7835 71.1649 24.8428C71.0829 24.8975 70.9803 24.9385 70.8573 24.9658C70.7343 24.9886 70.5884 25 70.4198 25H68.9979ZM69.8251 21.1104C69.9481 20.5407 69.8638 20.069 69.5721 19.6953C69.285 19.3216 68.8589 19.1348 68.2938 19.1348C67.7333 19.1348 67.2297 19.3307 66.7831 19.7227C66.3501 20.1009 66.0721 20.5726 65.9491 21.1377C65.8352 21.68 65.9218 22.1403 66.2089 22.5186C66.5051 22.9014 66.9244 23.0928 67.4667 23.0928C68.0272 23.0928 68.5308 22.9036 68.9774 22.5254C69.424 22.1471 69.7066 21.6755 69.8251 21.1104ZM69.9208 14.1445L69.6815 13.249C69.6223 13.0986 69.6109 12.9688 69.6473 12.8594C69.6884 12.7454 69.7909 12.652 69.955 12.5791L73.2977 10.9658L73.5917 12.2373C73.6418 12.3558 73.635 12.4606 73.5712 12.5518C73.5074 12.6383 73.4094 12.7158 73.2772 12.7842L69.9208 14.1445ZM77.2489 18.9912L76.1073 24.4395C76.0845 24.5488 76.0549 24.64 76.0184 24.7129C75.982 24.7858 75.9341 24.8451 75.8749 24.8906C75.8202 24.9316 75.7496 24.9613 75.663 24.9795C75.5809 24.9932 75.4784 25 75.3553 25H73.6669L74.9247 18.9912H73.7762L74.0428 17.6924C74.0611 17.6149 74.0816 17.5465 74.1044 17.4873C74.1272 17.4281 74.1613 17.3802 74.2069 17.3438C74.2525 17.3027 74.3094 17.2731 74.3778 17.2549C74.4507 17.2367 74.5419 17.2275 74.6512 17.2275H75.2938L75.6766 15.3887C75.704 15.2565 75.7382 15.1449 75.7792 15.0537C75.8202 14.958 75.8726 14.8805 75.9364 14.8213C76.0048 14.7575 76.0868 14.7119 76.1825 14.6846C76.2828 14.6527 76.4035 14.6367 76.5448 14.6367H78.1581L77.618 17.2275H78.7391L78.452 18.5879C78.4201 18.7474 78.3609 18.8545 78.2743 18.9092C78.1877 18.9639 78.0806 18.9912 77.953 18.9912H77.2489Z" fill="#F5F7FF"/>
<defs>
<filter id="filter0_d_3314_115072" x="2.94641" y="2" width="43.0162" height="36.0005" filterUnits="userSpaceOnUse" color-interpolation-filters="sRGB">
<feFlood flood-opacity="0" result="BackgroundImageFix"/>
<feColorMatrix in="SourceAlpha" type="matrix" values="0 0 0 0 0 0 0 0 0 0 0 0 0 0 0 0 0 0 127 0" result="hardAlpha"/>
<feOffset/>
<feGaussianBlur stdDeviation="2"/>
<feComposite in2="hardAlpha" operator="out"/>
<feColorMatrix type="matrix" values="0 0 0 0 0 0 0 0 0 0 0 0 0 0 0 0 0 0 0.25 0"/>
<feBlend mode="normal" in2="BackgroundImageFix" result="effect1_dropShadow_3314_115072"/>
<feBlend mode="normal" in="SourceGraphic" in2="effect1_dropShadow_3314_115072" result="shape"/>
</filter>
<linearGradient id="paint0_linear_3314_115072" x1="57.7355" y1="0" x2="57.7355" y2="40" gradientUnits="userSpaceOnUse">
<stop stop-color="#FC7749"/>
<stop offset="0.0001" stop-color="#FF6029"/>
<stop offset="1" stop-color="#FF965A"/>
</linearGradient>
</defs>
</svg>
