<svg width="16" height="21" viewBox="0 0 16 21" fill="none" xmlns="http://www.w3.org/2000/svg">
<path d="M7.2 0.885092C7.2 0.424854 7.55817 0.0517578 8 0.0517578C8.44183 0.0517578 8.8 0.424854 8.8 0.885091V10.8851C8.8 11.3453 8.44183 11.7184 8 11.7184C7.55817 11.7184 7.2 11.3453 7.2 10.8851V0.885092ZM5.6 4.95054C5.6 4.36368 5.05144 3.94705 4.5435 4.20092C1.85577 5.54429 0 8.40561 0 11.7184C0 16.3208 3.58172 20.0518 8 20.0518C12.4183 20.0518 16 16.3208 16 11.7184C16 8.40561 14.1442 5.54429 11.4565 4.20092C10.9486 3.94705 10.4 4.36368 10.4 4.95054C10.4 5.30462 10.6088 5.61861 10.9114 5.7799C12.9824 6.8838 14.4 9.12866 14.4 11.7184C14.4 15.4003 11.5346 18.3851 8 18.3851C4.46538 18.3851 1.6 15.4003 1.6 11.7184C1.6 9.12866 3.01762 6.8838 5.08862 5.7799C5.39122 5.61861 5.6 5.30462 5.6 4.95054Z" fill="#0F77FF"/>
<path d="M7.2 0.885092C7.2 0.424854 7.55817 0.0517578 8 0.0517578C8.44183 0.0517578 8.8 0.424854 8.8 0.885091V10.8851C8.8 11.3453 8.44183 11.7184 8 11.7184C7.55817 11.7184 7.2 11.3453 7.2 10.8851V0.885092ZM5.6 4.95054C5.6 4.36368 5.05144 3.94705 4.5435 4.20092C1.85577 5.54429 0 8.40561 0 11.7184C0 16.3208 3.58172 20.0518 8 20.0518C12.4183 20.0518 16 16.3208 16 11.7184C16 8.40561 14.1442 5.54429 11.4565 4.20092C10.9486 3.94705 10.4 4.36368 10.4 4.95054C10.4 5.30462 10.6088 5.61861 10.9114 5.7799C12.9824 6.8838 14.4 9.12866 14.4 11.7184C14.4 15.4003 11.5346 18.3851 8 18.3851C4.46538 18.3851 1.6 15.4003 1.6 11.7184C1.6 9.12866 3.01762 6.8838 5.08862 5.7799C5.39122 5.61861 5.6 5.30462 5.6 4.95054Z" stroke="#0F77FF"/>
</svg>
